<?xml version="1.0" standalone="no"?>
<!DOCTYPE svg PUBLIC "-//W3C//DTD SVG 20010904//EN"
 "http://www.w3.org/TR/2001/REC-SVG-20010904/DTD/svg10.dtd">
<svg version="1.0" xmlns="http://www.w3.org/2000/svg"
 width="869.000000pt" height="1280.000000pt" viewBox="0 0 869.000000 1280.000000"
 preserveAspectRatio="xMidYMid meet">
<metadata>
Created by potrace 1.15, written by Peter Selinger 2001-2017
</metadata>
<g transform="translate(0.000000,1280.000000) scale(0.100000,-0.100000)"
fill="#000000" stroke="none">
<path d="M4806 12569 c-188 -12 -436 -45 -634 -85 -1062 -213 -1934 -807
-2597 -1769 -808 -1174 -1197 -2825 -1144 -4860 44 -1689 394 -2994 1066
-3972 686 -1000 1615 -1524 2783 -1572 1507 -61 2676 501 3382 1627 307 488
493 1088 560 1807 17 183 17 777 0 950 -100 1011 -434 1771 -1046 2380 -494
492 -1069 761 -1786 836 -167 17 -536 15 -704 -6 -498 -59 -882 -208 -1301
-504 l-100 -71 -3 328 c-12 1216 153 2286 458 2977 269 609 635 953 1130 1061
123 27 507 27 630 0 278 -61 445 -180 474 -338 16 -90 -69 -180 -364 -383
-112 -77 -232 -167 -265 -200 -231 -226 -332 -613 -260 -991 66 -347 295 -642
627 -810 280 -141 636 -185 1008 -123 322 54 574 181 796 403 222 223 346 467
405 801 17 95 21 161 22 320 0 216 -14 340 -59 520 -180 714 -781 1280 -1635
1538 -395 120 -919 169 -1443 136z m-196 -5679 c345 -85 549 -339 655 -815
107 -481 159 -1407 135 -2420 -20 -878 -76 -1394 -187 -1750 -104 -333 -311
-547 -598 -620 -253 -64 -541 -31 -739 87 -81 48 -196 158 -253 243 -211 315
-314 853 -354 1860 -13 327 -7 1240 11 1505 52 809 143 1254 311 1530 74 120
209 253 314 307 88 45 188 78 280 93 97 15 327 4 425 -20z"/>
</g>
</svg>
