<?xml version="1.0" standalone="no"?>
<!DOCTYPE svg PUBLIC "-//W3C//DTD SVG 20010904//EN"
 "http://www.w3.org/TR/2001/REC-SVG-20010904/DTD/svg10.dtd">
<svg version="1.0" xmlns="http://www.w3.org/2000/svg"
 width="825.000000pt" height="1280.000000pt" viewBox="0 0 825.000000 1280.000000"
 preserveAspectRatio="xMidYMid meet">
<metadata>
Created by potrace 1.15, written by Peter Selinger 2001-2017
</metadata>
<g transform="translate(0.000000,1280.000000) scale(0.100000,-0.100000)"
fill="#000000" stroke="none">
<path d="M720 12328 c0 -7 -77 -917 -171 -2021 l-172 -2008 29 -30 28 -29 351
0 350 0 13 68 c101 537 272 1049 437 1302 166 256 418 380 913 448 102 13 333
16 1825 19 l1708 4 -37 -58 c-1021 -1592 -1903 -3116 -2489 -4298 -519 -1048
-849 -1884 -1023 -2595 -103 -416 -142 -708 -142 -1046 0 -374 54 -642 181
-897 250 -504 730 -767 1398 -767 946 0 1491 489 1625 1457 44 317 42 587 -9
1408 -13 215 -30 482 -37 595 -17 274 -17 1306 0 1535 34 463 74 807 137 1180
298 1772 1017 3371 2159 4795 l36 45 0 426 0 425 -28 27 -28 27 -3527 0
c-2815 0 -3527 -3 -3527 -12z"/>
</g>
</svg>
