<?xml version="1.0" standalone="no"?>
<!DOCTYPE svg PUBLIC "-//W3C//DTD SVG 1.1//EN" "http://www.w3.org/Graphics/SVG/1.1/DTD/svg11.dtd" >
<svg xmlns="http://www.w3.org/2000/svg" xmlns:xlink="http://www.w3.org/1999/xlink" version="1.1">
<metadata>
Created by FontForge 20170812 at Mon May 17 20:36:10 1993
 By www-data
Times New Roman Cyrillic (c) The Monotype Corporation plc. Data (c) The Monotype Corporation plc, Type Solutions Inc 1990 - 1992. All Rights Reserved.
</metadata>
<defs>
<font id="TimesNRCyrMT-Bold" horiz-adv-x="1024" >
  <font-face 
    font-family="Times New Roman Cyr"
    font-weight="700"
    font-stretch="normal"
    units-per-em="2048"
    panose-1="2 2 8 3 7 5 5 2 3 4"
    ascent="1638"
    descent="-410"
    x-height="950"
    cap-height="1406"
    bbox="-44 -458 2284 1799"
    underline-thickness="102"
    underline-position="-256"
    unicode-range="U+0020-2122"
  />
<missing-glyph horiz-adv-x="1536" 
d="M256 0v1280h1024v-1280h-1024zM288 32h960v1216h-960v-1216z" />
    <glyph glyph-name=".notdef" horiz-adv-x="1536" 
d="M256 0v1280h1024v-1280h-1024zM288 32h960v1216h-960v-1216z" />
    <glyph glyph-name="glyph1" horiz-adv-x="0" 
 />
    <glyph glyph-name="glyph2" horiz-adv-x="512" 
 />
    <glyph glyph-name="space" unicode=" " horiz-adv-x="512" 
 />
    <glyph glyph-name="exclam" unicode="!" horiz-adv-x="555" 
d="M298 458h-41q-2 103 -67 382q-79 338 -79 422q0 80 49.5 128t117.5 48q74 0 120.5 -49.5t46.5 -129.5q0 -79 -60 -335q-87 -370 -87 -466zM279 306q68 0 117 -49t49 -118t-48.5 -118t-117.5 -49t-117.5 49t-48.5 118t49 118t117 49z" />
    <glyph glyph-name="quotedbl" unicode="&#x22;" horiz-adv-x="1131" 
d="M349 771h-49l-104 384q-20 75 -20 135q0 58 43 103t106 45q62 0 104.5 -43.5t42.5 -100.5q0 -45 -24 -139zM832 771h-50l-101 384q-24 88 -24 138q0 51 42 98t110 47q67 0 106 -46t39 -96q0 -36 -26 -141z" />
    <glyph glyph-name="numbersign" unicode="#" horiz-adv-x="1366" 
d="M78 1057h307l81 385h189l-80 -385h356l80 385h187l-80 -385h169v-184h-207l-63 -306h270v-185h-308l-80 -382h-189l80 382h-356l-79 -382h-190l80 382h-167v185h205l64 306h-269v184zM536 873l-64 -306h356l64 306h-356z" />
    <glyph glyph-name="dollar" unicode="$" 
d="M918 1277v-300h-35q-108 280 -333 331v-454q245 -129 334 -241.5t89 -244.5q0 -150 -107 -260t-316 -132v-115h-84v115q-256 15 -397 70v331h37q84 -295 360 -331v516q-4 3 -71 42q-227 128 -286.5 223.5t-59.5 190.5q0 158 122.5 252t294.5 110v49h84v-49
q209 -20 368 -103zM466 1315q-91 -5 -149 -51t-58 -126q0 -66 44 -116.5t163 -118.5v412zM550 511v-465q76 8 137.5 57.5t61.5 133.5q0 156 -199 274z" />
    <glyph glyph-name="percent" unicode="%" horiz-adv-x="1792" 
d="M1412 1439l-909 -1495h-127l909 1495h127zM656 1068q0 -157 -73.5 -261.5t-206.5 -104.5q-126 0 -202.5 102.5t-76.5 261.5t78 261.5t202 102.5q123 0 201 -97.5t78 -264.5zM467 1116q0 183 -16 231.5t-73 48.5q-62 0 -77 -61.5t-15 -337.5q0 -194 24.5 -229t68.5 -35
q60 0 73 52.5t15 330.5zM1696 352q0 -163 -77 -263.5t-204 -100.5q-126 0 -202 102t-76 262q0 158 78 260t201 102q124 0 202 -97.5t78 -264.5zM1506 402q0 184 -15.5 231.5t-72.5 47.5q-61 0 -76.5 -59.5t-15.5 -326.5q0 -210 25 -243t67 -33q60 0 74 55.5t14 327.5z" />
    <glyph glyph-name="ampersand" unicode="&#x26;" horiz-adv-x="1579" 
d="M1458 838v-36q-74 -2 -119.5 -49.5t-141.5 -224.5q-71 -132 -111 -178q164 -177 258 -177q58 0 90 44l32 -20q-124 -225 -312 -225q-71 0 -130 34t-156 125q-212 -159 -412 -159q-177 0 -287 107.5t-110 256.5q0 103 50 194.5t121 148t207 123.5q-43 120 -43 236
q0 178 113.5 289t278.5 111q132 0 205.5 -78t73.5 -176q0 -73 -40 -140t-89 -98.5t-200 -99.5q132 -240 299 -439q122 174 122 282q0 56 -33 84t-78 29v36h412zM705 906q158 58 158 181q0 97 -45 180t-111 83q-43 0 -69.5 -31.5t-26.5 -84.5q0 -111 94 -328zM462 733
q-143 -70 -143 -175q0 -115 114 -270.5t216 -155.5q84 0 161 62q-226 266 -348 539z" />
    <glyph glyph-name="quotesingle" unicode="'" horiz-adv-x="575" 
d="M313 772h-48l-105 383q-20 71 -20 132q0 60 41 105.5t106 45.5q68 0 108.5 -45t40.5 -102q0 -44 -24 -136z" />
    <glyph glyph-name="parenleft" unicode="(" horiz-adv-x="682" 
d="M649 1442v-60q-313 -149 -313 -849q0 -378 75.5 -588t237.5 -286v-61q-248 78 -415 340.5t-167 582.5q0 333 177 594.5t405 326.5z" />
    <glyph glyph-name="parenright" unicode=")" horiz-adv-x="682" 
d="M33 1442q229 -65 405.5 -326.5t176.5 -594.5q0 -316 -168 -581.5t-414 -341.5v61q162 76 238 285.5t76 588.5q0 692 -314 849v60z" />
    <glyph glyph-name="asterisk" unicode="*" 
d="M546 1010q41 -60 150 -116q103 -54 103 -128q0 -41 -27 -71t-73 -30q-104 0 -125 148q-13 94 -63 181q-43 -54 -58 -145q-14 -85 -22.5 -110.5t-39 -49.5t-65.5 -24q-40 0 -69 28.5t-29 67.5q0 82 114 139q91 46 145 110q-41 15 -100 15q-29 0 -56 -4q-86 -14 -100 -14
q-39 0 -78.5 30.5t-39.5 82.5q0 41 31.5 68.5t75.5 27.5q57 0 131 -73q82 -82 145 -100q0 74 -45 161q-40 77 -40 119q0 49 30.5 82t72.5 33t72.5 -33.5t30.5 -78.5q0 -38 -30 -98q-53 -108 -54 -185q66 22 147 104q69 71 127 71q42 0 73 -26t31 -68q0 -53 -41 -83.5
t-79 -30.5q-12 0 -92 11q-23 3 -49 3q-54 0 -104 -14z" />
    <glyph glyph-name="plus" unicode="+" horiz-adv-x="1366" 
d="M127 807h452v452h208v-452h452v-208h-452v-452h-208v452h-452v208z" />
    <glyph glyph-name="comma" unicode="," horiz-adv-x="555" 
d="M127 -366v44q91 34 156 116.5t65 171.5q0 21 -5 31t-15 10l-15 -8q-36 -27 -78 -27q-63 0 -103 52t-40 110q0 67 48.5 119.5t124.5 52.5q92 0 148.5 -74t56.5 -174q0 -160 -95 -268t-248 -156z" />
    <glyph glyph-name="hyphen" unicode="-" horiz-adv-x="682" 
d="M634 581v-212h-586v212h586z" />
    <glyph glyph-name="hyphen" unicode="&#xad;" horiz-adv-x="682" 
d="M634 581v-212h-586v212h586z" />
    <glyph glyph-name="period" unicode="." horiz-adv-x="555" 
d="M277 303q67 0 116 -47t49 -118q0 -69 -48.5 -117.5t-116.5 -48.5q-67 0 -115.5 48.5t-48.5 117.5q0 68 48.5 116.5t115.5 48.5z" />
    <glyph glyph-name="slash" unicode="/" horiz-adv-x="575" 
d="M343 1438h232l-343 -1466h-232z" />
    <glyph glyph-name="zero" unicode="0" 
d="M978 705q0 -178 -48 -350t-161 -275.5t-259 -103.5q-136 0 -246 96t-164 268t-54 364q0 319 131 522.5t335 203.5q208 0 337 -197t129 -528zM662 703l-1 212q0 112 -6.5 208.5t-16.5 136t-25.5 59t-40.5 32t-56 12.5q-104 0 -129 -120.5t-25 -685.5q0 -356 34.5 -438
t119.5 -82q96 0 121 105t25 561z" />
    <glyph glyph-name="one" unicode="1" 
d="M667 1430v-1203q0 -109 35 -149.5t148 -40.5h21v-37h-727v37h62q82 0 121.5 33.5t39.5 133.5v864q0 132 -106 132q-44 0 -117 -34l-19 35l508 229h34z" />
    <glyph glyph-name="two" unicode="2" 
d="M977 407l-76 -407h-860v27q9 12 64 72q243 267 370.5 469t127.5 357q0 123 -71 200t-180 77q-176 0 -252 -175l-35 12q103 391 437 391q174 0 289.5 -102.5t115.5 -260.5q0 -142 -128 -329.5t-423 -462.5h361q188 0 222 132h38z" />
    <glyph glyph-name="three" unicode="3" 
d="M333 747q141 25 214.5 103.5t73.5 172.5q0 96 -66 158.5t-166 62.5q-175 0 -267 -166l-36 11q140 341 462 341q155 0 254 -86t99 -210q0 -170 -195 -271q105 -40 186 -136.5t81 -233.5q0 -207 -168 -362t-441 -155q-162 0 -242 47.5t-80 117.5q0 45 32 75.5t73 30.5
q59 0 147 -74q132 -113 229 -113q83 0 149.5 63.5t66.5 164.5q0 148 -117 268t-289 152v39z" />
    <glyph glyph-name="four" unicode="4" 
d="M859 1430v-903h124v-225h-124v-302h-295v302h-534v225l708 903h121zM564 527v553l-436 -553h436z" />
    <glyph glyph-name="five" unicode="5" 
d="M973 1406l-109 -270h-571l-48 -134q353 -7 534.5 -152.5t181.5 -367.5q0 -232 -178.5 -369t-398.5 -137q-145 0 -240.5 44t-95.5 120q0 42 32 75.5t75 33.5q58 0 191 -81q147 -89 224 -89q91 0 154.5 68.5t63.5 155.5q0 167 -173.5 284t-467.5 117q-32 0 -96 -2l254 704
h668z" />
    <glyph glyph-name="six" unicode="6" 
d="M986 1430v-39q-497 -95 -591 -557q51 29 104.5 43t109.5 14q145 0 259.5 -110.5t114.5 -309.5q0 -219 -128.5 -357t-321.5 -138q-205 0 -343 165t-138 420q0 314 235 578t699 291zM382 749q-10 -73 -10 -173q0 -270 46.5 -405.5t139.5 -135.5q66 0 98.5 66.5t32.5 198.5
q0 248 -50 364t-154 116q-27 0 -52.5 -7.5t-50.5 -23.5z" />
    <glyph glyph-name="seven" unicode="7" 
d="M987 1406l-472 -1430h-162l382 1153h-357q-248 0 -310 -156h-39l104 433h854z" />
    <glyph glyph-name="eight" unicode="8" 
d="M701 795q277 -196 277 -424q0 -164 -129.5 -279.5t-352.5 -115.5q-221 0 -335 110.5t-114 242.5q0 232 294 346q-176 135 -223 226.5t-47 177.5q0 162 134 256.5t333 94.5q174 0 292.5 -90.5t118.5 -226.5q0 -190 -248 -318zM626 849q71 72 71 260q0 129 -43.5 193.5
t-131.5 64.5q-75 0 -126.5 -52.5t-51.5 -126.5q0 -139 226 -299q48 -34 56 -40zM412 627q-102 -88 -102 -307q0 -140 49 -210.5t147 -70.5q85 0 138.5 55.5t53.5 144.5q0 199 -286 388z" />
    <glyph glyph-name="nine" unicode="9" 
d="M39 -24v39q496 95 591 557q-51 -28 -104.5 -42.5t-109.5 -14.5q-152 0 -263.5 114.5t-111.5 305.5q0 219 129 357t322 138q208 0 344.5 -168t136.5 -418q0 -254 -142 -459.5t-326 -296.5t-466 -112zM642 657q11 78 11 173q0 270 -46.5 405t-139.5 135q-66 0 -99 -66
t-33 -198q0 -199 42 -339.5t162 -140.5q28 0 53.5 8t49.5 23z" />
    <glyph glyph-name="colon" unicode=":" horiz-adv-x="555" 
d="M276 972q70 0 118 -48t48 -115q0 -68 -48.5 -116t-115.5 -48q-69 0 -117 48t-48 116q0 67 47.5 115t115.5 48zM277 303q67 0 116 -47t49 -118q0 -69 -48.5 -117.5t-116.5 -48.5q-67 0 -115.5 48.5t-48.5 117.5q0 68 48.5 116.5t115.5 48.5z" />
    <glyph glyph-name="semicolon" unicode=";" horiz-adv-x="555" 
d="M281 972q68 0 117 -47t49 -116q0 -68 -48 -116t-117 -48q-68 0 -116 48.5t-48 115.5q0 68 47.5 115.5t115.5 47.5zM127 -366v44q91 34 156 116.5t65 171.5q0 21 -5 31t-15 10l-15 -8q-36 -27 -78 -27q-63 0 -103 52t-40 110q0 67 48.5 119.5t124.5 52.5q92 0 148.5 -74
t56.5 -174q0 -160 -95 -268t-248 -156z" />
    <glyph glyph-name="less" unicode="&#x3c;" horiz-adv-x="1366" 
d="M1238 145l-1110 464v188l1110 464v-226l-789 -332l789 -332v-226z" />
    <glyph glyph-name="equal" unicode="=" horiz-adv-x="1366" 
d="M127 1045h1112v-208h-1112v208zM127 569h1112v-209h-1112v209z" />
    <glyph glyph-name="greater" unicode="&#x3e;" horiz-adv-x="1366" 
d="M128 1261l1110 -464v-188l-1110 -464v226l789 332l-789 332v226z" />
    <glyph glyph-name="question" unicode="?" horiz-adv-x="789" 
d="M363 459h-45q2 136 14 191.5t53 137.5q39 79 54 134t15 148q0 148 -40.5 222t-121.5 74q-37 0 -61.5 -18.5t-24.5 -36.5q0 -24 23 -62q51 -83 51 -144q0 -46 -35 -84.5t-85 -38.5q-55 0 -93.5 43t-38.5 119q0 128 101.5 211t244.5 83q147 0 263 -85t116 -251
q0 -112 -56 -194t-178 -169q-103 -74 -129 -130.5t-27 -149.5zM352 306q67 0 116 -48t49 -119q0 -68 -48.5 -117.5t-116.5 -49.5q-69 0 -117.5 49t-48.5 118t48.5 118t117.5 49z" />
    <glyph glyph-name="at" unicode="@" horiz-adv-x="1962" 
d="M1220 959l252 11l-190 -652q-31 -107 -31 -164q0 -30 24.5 -54.5t57.5 -24.5q75 0 187 83t187 234.5t75 326.5q0 280 -182 467t-482 187q-238 0 -449.5 -111.5t-339.5 -346t-128 -500.5q0 -361 231 -588.5t580 -227.5q281 0 518.5 155t331.5 417h64
q-120 -303 -361.5 -466t-554.5 -163q-388 0 -653 251.5t-265 657.5q0 420 282 703.5t721 283.5q348 0 546.5 -200t198.5 -496q0 -204 -86.5 -383t-227 -269t-304.5 -90q-115 0 -164.5 56t-49.5 122q0 61 25 149q-190 -327 -359 -327q-84 0 -128.5 66t-44.5 162
q0 209 101.5 397t228 280.5t206.5 92.5q64 0 101 -40.5t46 -121.5zM1060 924q-82 0 -187 -244.5t-105 -395.5q0 -39 18 -66.5t43 -27.5q38 0 110.5 81.5t135 234t62.5 284.5q0 67 -19 100.5t-58 33.5z" />
    <glyph glyph-name="A" unicode="A" horiz-adv-x="1473" 
d="M840 398h-449l-68 -163q-24 -58 -24 -91q0 -57 40.5 -81t140.5 -26v-37h-451v37q134 3 244 271l462 1122h20l486 -1184q85 -209 201 -209v-37h-657v37h25q139 0 139 71q0 19 -17 63zM810 472l-193 473l-195 -473h388z" />
    <glyph glyph-name="B" unicode="B" horiz-adv-x="1366" 
d="M919 740q165 -24 278 -118.5t113 -242.5q0 -118 -75 -207.5t-195.5 -130.5t-257.5 -41h-757v37h42q86 0 118.5 42.5t32.5 143.5v958q0 122 -42.5 155t-108.5 33h-29v37h686q266 0 396 -94.5t130 -248.5q0 -128 -82.5 -209t-248.5 -114zM544 1332v-565h29q166 0 249 71
t83 213q0 97 -45 167t-106.5 92t-167.5 22h-42zM544 693v-475q0 -85 26.5 -115t93.5 -30q133 0 208.5 83.5t75.5 212.5q0 127 -84 225.5t-291 98.5h-29z" />
    <glyph glyph-name="C" unicode="C" horiz-adv-x="1473" 
d="M1391 1436v-471h-40q-35 195 -165 289t-272 94q-124 0 -224 -71t-164.5 -209.5t-64.5 -365.5q0 -333 127.5 -488.5t317.5 -155.5q141 0 266 77.5t192 187.5v-121q-210 -230 -524 -230q-347 0 -546 211t-199 497q0 315 220.5 536.5t511.5 221.5q145 0 317 -70
q71 -30 108 -30q80 0 99 98h40z" />
    <glyph glyph-name="D" unicode="D" horiz-adv-x="1579" 
d="M36 0v37h42q67 0 109 31t42 155v958q0 99 -32 143.5t-119 44.5h-42v37h668q229 0 394.5 -62t287.5 -231.5t122 -418.5q0 -187 -70.5 -330t-184.5 -226.5t-236.5 -110.5t-312.5 -27h-668zM556 1331v-1097q0 -99 26.5 -129t125.5 -30q218 0 327 152.5t109 456.5
q0 324 -118.5 485.5t-356.5 161.5h-113z" />
    <glyph glyph-name="E" unicode="E" horiz-adv-x="1366" 
d="M569 1333v-579h26q100 0 149.5 28t82.5 99t49 197h38v-715h-38q-15 130 -52.5 200t-88 93.5t-140.5 23.5h-26v-442q0 -97 25.5 -130t111.5 -33h134q338 0 448 359h35l-64 -434h-1222v37h54q67 0 109 31t42 155v958q0 122 -42.5 155t-108.5 33h-54v37h1186v-398h-36
q-21 122 -78 200.5t-132 101.5t-217 23h-191z" />
    <glyph glyph-name="F" unicode="F" horiz-adv-x="1237" 
d="M555 1330v-585h50q155 0 220.5 91.5t65.5 205.5h41v-686h-41q-15 316 -297 316h-39v-449q0 -98 32 -142t120 -44h60v-37h-742v37h54q83 0 115 42t32 144v958q0 121 -41.5 154.5t-112.5 33.5h-47v37h1167v-387h-37q-30 311 -362 311h-238z" />
    <glyph glyph-name="G" unicode="G" horiz-adv-x="1579" 
d="M1385 1434v-477h-39q-61 186 -194 293.5t-290 107.5q-188 0 -298.5 -179t-110.5 -508q0 -339 115 -485.5t292 -146.5q97 0 200 49v341q0 71 -43 100t-136 29v35h669v-35q-73 0 -110 -21.5t-46 -53t-9 -113.5v-282q-218 -116 -532 -116q-327 0 -545.5 188.5t-218.5 511.5
q0 321 222.5 543.5t520.5 222.5q151 0 344 -77q50 -20 75 -20q69 0 95 93h39z" />
    <glyph glyph-name="H" unicode="H" horiz-adv-x="1685" 
d="M1141 679h-597v-456q0 -98 31.5 -142t119.5 -44h37v-37h-698v37h32q84 0 117.5 42t33.5 144v958q0 100 -32.5 144t-118.5 44h-32v37h698v-37h-37q-85 0 -118 -42.5t-33 -145.5v-416h597v416q0 100 -32.5 144t-118.5 44h-32v37h693v-37h-33q-84 0 -117.5 -42.5
t-33.5 -145.5v-958q0 -98 32 -142t119 -44h33v-37h-693v37h32q84 0 117.5 42t33.5 144v456z" />
    <glyph glyph-name="I" unicode="I" horiz-adv-x="789" 
d="M755 37v-37h-721v37h46q85 0 118 42.5t33 143.5v958q0 99 -32 143.5t-119 44.5h-46v37h721v-37h-46q-85 0 -118.5 -42.5t-33.5 -145.5v-958q0 -98 32 -142t120 -44h46z" />
    <glyph glyph-name="J" unicode="J" horiz-adv-x="1131" 
d="M363 1369v37h734v-37h-42q-67 0 -109 -31.5t-42 -156.5v-763q0 -141 -41 -232.5t-154.5 -152.5t-244.5 -61q-198 0 -308 88.5t-110 196.5q0 77 45 117.5t105 40.5t101.5 -38.5t41.5 -97.5q0 -54 -43 -111q-22 -28 -22 -44q0 -31 40.5 -53t98.5 -22q70 0 117.5 41.5
t47.5 177.5v913q0 121 -42 154.5t-109 33.5h-64z" />
    <glyph glyph-name="K" unicode="K" horiz-adv-x="1473" 
d="M802 888l447 -702q66 -103 99 -126t97 -23v-37h-656v37q127 0 127 55q0 36 -53 120l-272 429l-47 -55v-363q0 -115 38 -150.5t125 -35.5v-37h-679v37h39q85 0 118 42.5t33 143.5v958q0 99 -32 143.5t-119 44.5h-39v37h679v-37q-86 0 -124.5 -35.5t-38.5 -152.5v-478
l356 419q95 111 95 167q0 80 -132 80h-20v37h528v-37q-100 -6 -190.5 -72t-251.5 -259z" />
    <glyph glyph-name="L" unicode="L" horiz-adv-x="1366" 
d="M1318 480l-50 -480h-1235v37h70q85 0 118 42.5t33 143.5v958q0 99 -32 143.5t-119 44.5h-70v37h795v-37h-96q-85 0 -118 -42.5t-33 -145.5v-940q0 -99 22.5 -134t109.5 -35h136q110 0 187.5 33.5t141.5 124t103 250.5h37z" />
    <glyph glyph-name="M" unicode="M" horiz-adv-x="2027" 
d="M1018 440l435 966h545v-37h-35q-85 0 -117.5 -42.5t-32.5 -145.5v-958q0 -98 31.5 -142t118.5 -44h35v-37h-713v37h50q85 0 118 42t33 144v1077l-586 -1300h-29l-583 1290v-1033q0 -95 14 -132t59 -62.5t100 -25.5h25v-37h-457v37q63 0 109.5 27.5t61.5 66t15 126.5v924
q0 99 -32 143.5t-119 44.5h-35v37h552z" />
    <glyph glyph-name="N" unicode="N" horiz-adv-x="1579" 
d="M497 1406l804 -911v642q0 135 -42 183.5t-167 48.5v37h459v-37q-69 -1 -109 -27t-53.5 -68t-13.5 -137v-1158h-36l-1036 1170v-919q0 -79 23 -120t64 -56t135 -17v-37h-494v37q108 2 153 45t45 148v1003q-18 19 -33 35q-86 97 -165 101v37h466z" />
    <glyph glyph-name="O" unicode="O" horiz-adv-x="1685" 
d="M1600 698q0 -308 -207 -517t-550 -209q-209 0 -374 81.5t-274.5 250t-109.5 402.5q0 237 113.5 406t284.5 247.5t357 78.5q331 0 545.5 -206t214.5 -534zM1235 688q0 326 -109 500.5t-283 174.5q-176 0 -285 -171t-109 -486q0 -292 103 -478t287 -186q180 0 288 174
t108 472z" />
    <glyph glyph-name="P" unicode="P" horiz-adv-x="1366" 
d="M564 642v-419q0 -98 31.5 -142t117.5 -44h39v-37h-715v37h50q85 0 118 42.5t33 143.5v958q0 100 -32 144t-119 44h-50v37h715q297 0 431 -113.5t134 -265.5q0 -150 -130 -267.5t-474 -117.5h-149zM564 1334v-617h106q148 0 221.5 75t73.5 225q0 148 -60 232.5t-235 84.5
h-106z" />
    <glyph glyph-name="Q" unicode="Q" horiz-adv-x="1685" 
d="M1025 -14q37 -128 145.5 -205t253.5 -77q50 0 105 10v-58q-135 -42 -284 -42q-202 0 -355.5 100t-221.5 272q-276 56 -430 254t-154 464q0 332 218.5 533t534.5 201q328 0 545 -205.5t217 -530.5q0 -269 -153.5 -464t-420.5 -252zM1234 697q0 305 -105 485.5t-288 180.5
q-179 0 -285 -178.5t-106 -473.5q0 -318 107.5 -493.5t281.5 -175.5q103 0 191.5 65t146 215t57.5 375z" />
    <glyph glyph-name="R" unicode="R" horiz-adv-x="1473" 
d="M561 642v-450q0 -89 38 -122t139 -33h21v-37h-720v37h20q100 0 139 32t39 123v1022q0 91 -39 123t-139 32h-20v37h699q285 0 409.5 -112t124.5 -276q0 -132 -77.5 -219t-232.5 -129l290 -463q104 -165 184 -170v-37h-411l-401 642h-63zM561 1332v-615h78q168 0 233.5 83
t65.5 224q0 117 -42.5 187t-108.5 95.5t-177 25.5h-49z" />
    <glyph glyph-name="S" unicode="S" horiz-adv-x="1237" 
d="M1076 1438l10 -457h-39q-24 151 -158 264t-318 113q-125 0 -205 -60.5t-80 -149.5q0 -81 67 -135t260 -117q211 -69 316 -123.5t172 -154.5t67 -223q0 -188 -149.5 -305.5t-389.5 -117.5q-139 0 -320 67q-62 23 -90 23q-71 0 -108 -90h-42v515h40q34 -203 176 -323
t334 -120q145 0 232 60t87 163q0 101 -81 166q-82 64 -283 134t-296 121.5t-151 139.5t-56 200q0 173 135.5 291.5t343.5 118.5q145 0 307 -73q79 -35 108 -35q73 0 73 108h38z" />
    <glyph glyph-name="T" unicode="T" horiz-adv-x="1366" 
d="M1316 1406v-371h-38q-40 293 -300 293h-132v-1105q0 -98 32 -142t119 -44h51v-37h-733v37h54q67 0 108.5 31t41.5 155v1105h-143q-83 0 -137 -27.5t-97 -102.5t-52 -163h-41v371h1267z" />
    <glyph glyph-name="U" unicode="U" horiz-adv-x="1579" 
d="M1550 1406v-37q-82 0 -132.5 -39t-50.5 -161v-547q0 -178 -15.5 -273t-84.5 -186t-185 -141t-284 -50q-161 0 -274.5 42.5t-181 111t-92.5 150.5t-25 220v673q0 85 -10.5 120t-45 57.5t-115.5 22.5h-26v37h697v-37h-23q-60 0 -95 -23t-45 -56t-10 -121v-700
q0 -160 20.5 -228.5t103.5 -123t212 -54.5q115 0 200.5 44.5t132 115.5t60 154.5t13.5 254.5v537q0 106 -38 149t-138 51v37h432z" />
    <glyph glyph-name="V" unicode="V" horiz-adv-x="1473" 
d="M1440 1406v-37q-64 -5 -119.5 -64t-148.5 -286l-431 -1052h-36l-499 1247q-24 60 -60 107t-111 48v37h626v-37q-138 0 -138 -70q0 -30 18 -73l313 -787l292 714q28 67 28 108q0 105 -155 108v37h421z" />
    <glyph glyph-name="W" unicode="W" horiz-adv-x="2027" 
d="M2006 1406v-37q-42 -7 -71 -50.5t-82 -190.5l-433 -1158h-33l-339 907l-376 -907h-38l-478 1237q-41 108 -63.5 134t-68.5 28v37h571v-37q-119 -3 -119 -80q0 -38 38 -137l273 -708l224 535l-78 207q-43 115 -88.5 148t-118.5 35v37h661v-37q-87 -1 -117.5 -16.5
t-30.5 -53.5q0 -35 35 -128l257 -691l241 648q37 98 37 158q0 80 -137 83v37h334z" />
    <glyph glyph-name="X" unicode="X" horiz-adv-x="1473" 
d="M858 822l385 -609q109 -172 195 -176v-37h-654v37q130 0 130 66q0 31 -56 120l-205 329l-220 -294q-61 -81 -61 -133q0 -80 179 -88v-37h-517v37q94 0 170 71t145 164l259 348l-371 584q-60 94 -99 126.5t-104 38.5v37h676v-37q-81 -1 -109 -15t-28 -53q0 -31 35 -88
l206 -325l165 223q72 98 72 152q0 106 -150 106v37h493v-37q-89 -3 -146.5 -52t-120.5 -134z" />
    <glyph glyph-name="Y" unicode="Y" horiz-adv-x="1473" 
d="M882 653l263 503q41 78 41 123q0 88 -160 90v37h417v-37q-55 0 -98 -38t-122 -189l-297 -562v-357q0 -98 31.5 -142t118.5 -44h69v-37h-762v37h65q85 0 118 42.5t33 143.5v298l-361 672q-67 125 -106.5 150.5t-103.5 25.5v37h654v-37q-83 -3 -109 -14.5t-26 -47.5
q0 -29 30 -84z" />
    <glyph glyph-name="Z" unicode="Z" horiz-adv-x="1473" 
d="M1330 1406l-845 -1331h295q157 0 232.5 13.5t155 66.5t131.5 141t70 197h39l-55 -493h-1287l848 1332h-276q-359 0 -422 -329h-34l34 403h1114z" />
    <glyph glyph-name="bracketleft" unicode="[" horiz-adv-x="555" 
d="M128 1406h397v-37h-22q-80 0 -101 -26t-21 -117v-1418q0 -88 20 -112t102 -24h22v-39h-397v1773z" />
    <glyph glyph-name="backslash" unicode="\" horiz-adv-x="575" 
d="M232 1438l343 -1466h-232l-343 1466h232z" />
    <glyph glyph-name="bracketright" unicode="]" horiz-adv-x="555" 
d="M427 1406v-1773h-397v39h22q81 0 101 23.5t20 112.5v1418q0 89 -19.5 116t-101.5 27h-22v37h397z" />
    <glyph glyph-name="asciicircum" unicode="^" horiz-adv-x="1045" 
d="M244 691h-166l411 715h66l411 -715h-173l-276 478z" />
    <glyph glyph-name="underscore" unicode="_" 
d="M-12 -154h1048v-102h-1048v102z" />
    <glyph glyph-name="grave" unicode="`" horiz-adv-x="682" 
d="M104 1442h302l117 -350h-85z" />
    <glyph glyph-name="a" unicode="a" 
d="M976 142l20 -19q-72 -151 -227 -151q-83 0 -129 38t-56 113q-13 -9 -63 -47q-138 -104 -249 -104q-75 0 -132 54t-57 142q0 103 95 193t406 232v123q0 79 -7 108t-39.5 51.5t-85.5 22.5q-56 0 -97.5 -23.5t-41.5 -59.5q0 -19 24 -47q40 -48 40 -91q0 -49 -37 -79t-94 -30
q-68 0 -108.5 35.5t-40.5 91.5q0 106 123 191.5t305 85.5q132 0 206 -37t104.5 -95.5t30.5 -169.5v-376q0 -122 11 -158t46 -36q30 0 53 42zM584 520q-221 -113 -221 -264q0 -51 28.5 -80.5t70.5 -29.5q30 0 60.5 13t61.5 39v322z" />
    <glyph glyph-name="b" unicode="b" 
d="M416 1406v-542q54 54 111.5 81t118.5 27q91 0 168 -56t124 -158t47 -239q0 -235 -127.5 -391t-307.5 -156q-138 0 -224 107q-37 -26 -159 -104h-34v1208q0 109 -19.5 146t-84.5 40v37h387zM416 770v-336q0 -245 26.5 -319t93.5 -74q77 0 115.5 112t38.5 335
q0 185 -33.5 277.5t-101.5 92.5q-30 0 -65 -22t-74 -66z" />
    <glyph glyph-name="c" unicode="c" horiz-adv-x="895" 
d="M840 240l31 -22q-132 -246 -386 -246q-202 0 -319 144.5t-117 337.5q0 223 132.5 370.5t332.5 147.5q137 0 234 -70t97 -169q0 -50 -34.5 -87t-90.5 -37q-135 0 -155 184q-12 108 -95 108q-70 0 -111 -80t-41 -217q0 -172 76 -323.5t226 -151.5q119 0 220 111z" />
    <glyph glyph-name="d" unicode="d" 
d="M880 1406v-1130q0 -115 23 -149.5t93 -34.5v-37l-396 -82v138q-37 -69 -91 -104t-124 -35q-147 0 -242.5 141t-95.5 371q0 220 107.5 354t248.5 134q57 0 106 -24.5t91 -74.5v310q0 110 -20 148t-80 38h-40v37h420zM600 753q-30 63 -66 94.5t-78 31.5q-56 0 -84.5 -79.5
t-28.5 -239.5q0 -285 36.5 -374t96.5 -89q36 0 67 30.5t57 91.5v534z" />
    <glyph glyph-name="e" unicode="e" horiz-adv-x="895" 
d="M818 282l38 -22q-132 -288 -391 -288q-199 0 -308.5 139.5t-109.5 344.5q0 219 129.5 367.5t296.5 148.5q156 0 269.5 -130t113.5 -337h-538q9 -171 89.5 -275t189.5 -104q135 0 221 156zM318 572h287q1 34 1 66q0 140 -39 204t-98 64q-60 0 -105.5 -78t-45.5 -256z" />
    <glyph glyph-name="f" unicode="f" horiz-adv-x="682" 
d="M584 950v-102h-130v-627q0 -108 20 -146t81 -38h47v-37h-562v37h34q60 0 80.5 37.5t20.5 146.5v627h-135v102h135v69q0 133 25.5 207t123.5 139t245 65q110 0 172 -42t62 -104q0 -54 -42 -83.5t-98 -29.5q-57 0 -85 26.5t-28 55.5q0 16 7 46q4 15 4 27q0 44 -44 44
q-37 0 -50 -35t-13 -136v-249h130z" />
    <glyph glyph-name="g" unicode="g" 
d="M978 827h-180q95 -82 95 -208q0 -141 -122 -234q-122 -94 -281 -94q-27 0 -57 3q-25 3 -38 3q-40 0 -76 -28t-36 -70q0 -81 130 -81l191 2q375 0 375 -246q0 -130 -111.5 -219t-360.5 -89q-222 0 -333 46.5t-111 139.5q0 49 39.5 85t118.5 59q-123 62 -123 178
q0 74 48.5 133t172.5 114q-129 49 -190 139.5t-61 183.5q0 133 116 230.5t293 97.5q52 0 98 -9t86 -27h317v-109zM353 616q0 -133 34 -199.5t101 -66.5q68 0 102 71t34 212q0 140 -33.5 210t-100.5 70q-68 0 -102.5 -74t-34.5 -223zM233 -219q0 -71 72 -106.5t215 -35.5
q159 0 227.5 42.5t68.5 96.5q0 39 -46 67.5t-313 28.5q-96 0 -131 -5.5t-64 -34t-29 -53.5z" />
    <glyph glyph-name="h" unicode="h" 
d="M399 1406v-586q58 76 125 114t144 38q256 0 256 -347v-404q0 -100 11.5 -130.5t48.5 -45.5l17 -8v-37h-443v37q54 11 69 45.5t15 138.5v460q0 158 -87 158q-37 0 -76 -29t-80 -87v-502q0 -103 15 -137t69 -47v-37h-448v37q53 16 68.5 47.5t15.5 136.5v962
q0 107 -15 142.5t-69 43.5v37h364z" />
    <glyph glyph-name="i" unicode="i" horiz-adv-x="555" 
d="M288 1438q66 0 113 -45.5t47 -112.5q0 -65 -46.5 -111.5t-112.5 -46.5t-112 46.5t-46 112.5q0 63 45 110t112 47zM425 950v-729q0 -109 19.5 -144.5t82.5 -39.5v-37h-501v37q72 0 95 34t23 150v505q0 118 -23 152.5t-95 34.5v37h399z" />
    <glyph glyph-name="j" unicode="j" horiz-adv-x="555" 
d="M279 1438q67 0 113.5 -45.5t46.5 -112.5q0 -65 -46.5 -111.5t-111.5 -46.5q-66 0 -112.5 47t-46.5 112q0 63 45 110t112 47zM428 950v-937q0 -169 -19 -248t-92 -139t-178 -60q-82 0 -131 35.5t-49 87.5q0 36 27 64.5t71 28.5q64 0 101 -86q25 -58 56 -58q24 0 36 15
t12 45q0 37 -57 167q-57 132 -57 273v589q0 110 -20.5 148t-80.5 38h-21v37h402z" />
    <glyph glyph-name="k" unicode="k" horiz-adv-x="1131" 
d="M433 1406v-935l196 225q84 96 84 145q0 72 -108 72v37h410v-37q-70 -6 -124.5 -42.5t-152.5 -148.5l-84 -95l254 -389q126 -194 193 -201v-37h-472v37q59 5 59 40q0 24 -59 113l-152 236l-44 -51v-153q0 -112 22 -148.5t94 -36.5v-37h-520v37h24q60 0 80.5 38t20.5 147
v961q0 110 -20 148t-81 38h-24v37h404z" />
    <glyph glyph-name="l" unicode="l" horiz-adv-x="555" 
d="M430 1406v-1178l-1 -87q0 -104 104 -104v-37h-507v37q58 1 84 20t33.5 49.5t7.5 121.5v923q0 123 -7.5 152.5t-33 47.5t-84.5 18v37h404z" />
    <glyph glyph-name="m" unicode="m" horiz-adv-x="1579" 
d="M402 950v-133q61 78 130 116.5t145 38.5q84 0 153 -45t84 -128q60 87 134.5 130t162.5 43q114 0 181.5 -71.5t67.5 -194.5v-485q0 -106 17 -142t74 -42v-37h-459v37q55 9 71 44.5t16 139.5v467q0 85 -18.5 118.5t-65.5 33.5q-40 0 -81 -31t-83 -93v-495q0 -104 15.5 -140
t71.5 -44v-37h-453v37q54 10 69.5 45t15.5 139v460q0 87 -18.5 121.5t-70.5 34.5q-39 0 -79 -30t-80 -91v-495q0 -105 16.5 -141t72.5 -43v-37h-464v37q58 4 76 40.5t18 143.5v505q0 109 -18 146t-76 41v37h375z" />
    <glyph glyph-name="n" unicode="n" 
d="M400 950v-127q62 75 130.5 112t142.5 37q93 0 157.5 -53t79.5 -120t15 -210v-368q0 -101 11.5 -130t58.5 -54v-37h-435v37q54 12 68.5 46t14.5 138v422q0 124 -18.5 161t-69.5 37q-39 0 -77.5 -28.5t-77.5 -86.5v-505q0 -103 15 -138t70 -46v-37h-444v37q50 15 64 48.5
t14 135.5v505q0 102 -14 137t-64 50v37h359z" />
    <glyph glyph-name="o" unicode="o" 
d="M966 469q0 -241 -142 -369t-307 -128q-172 0 -315.5 128.5t-143.5 373.5q0 222 131 360t320 138q193 0 325 -135.5t132 -367.5zM672 449q0 274 -33 365t-125 91q-83 0 -122 -83t-39 -285q0 -298 32.5 -394.5t127.5 -96.5q87 0 123 86.5t36 316.5z" />
    <glyph glyph-name="p" unicode="p" 
d="M423 950v-113q43 68 98 101.5t122 33.5q135 0 233 -137.5t98 -363.5q0 -234 -109.5 -366.5t-244.5 -132.5q-60 0 -109 27t-88 81v-293q0 -107 20 -144t81 -37h42v-38h-537v38q70 0 91.5 35t21.5 146v940q0 114 -22 150t-91 36v37h394zM423 729v-559q39 -50 74 -75t66 -25
q56 0 86 74t30 321q0 193 -32 289t-97 96q-37 0 -68.5 -30t-58.5 -91z" />
    <glyph glyph-name="q" unicode="q" horiz-adv-x="1034" 
d="M898 972v-1185q0 -107 19.5 -142.5t83.5 -38.5v-38h-503v38q73 0 96 33.5t23 147.5v299q-50 -57 -107.5 -85.5t-121.5 -28.5q-142 0 -240 130.5t-98 331.5q0 266 138 402t293 136q68 0 124.5 -26.5t102.5 -79.5l162 106h28zM617 174v400q0 197 -29 265t-91 68
q-76 0 -114 -109t-38 -327q0 -226 37.5 -303.5t101.5 -77.5q30 0 63.5 21t69.5 63z" />
    <glyph glyph-name="r" unicode="r" horiz-adv-x="789" 
d="M408 950v-170q51 96 108 144t120 48q49 0 79 -37.5t30 -97.5q0 -68 -33 -104.5t-80 -36.5q-40 0 -88 37q-38 28 -58 28q-40 0 -59 -59t-19 -207v-274q0 -108 20 -146t80 -38h23v-37h-509v37q63 0 83.5 37t20.5 147v506q0 109 -19.5 145.5t-84.5 40.5v37h386z" />
    <glyph glyph-name="s" unicode="s" horiz-adv-x="789" 
d="M53 310h23q51 -131 142.5 -199.5t186.5 -68.5q56 0 101.5 32.5t45.5 88.5q0 51 -44 91q-45 40 -166 96q-162 75 -231 147t-69 184q0 121 87 206t216 85q68 0 157 -36q57 -23 76 -23q48 0 83 59h23l17 -321h-25q-40 114 -130 182t-186 68q-53 0 -89.5 -28.5t-36.5 -69.5
q0 -78 183 -166q194 -93 268 -167q73 -74 73 -193q0 -123 -91 -214t-239 -91q-79 0 -189 42q-57 22 -76 22q-41 0 -68 -64h-19z" />
    <glyph glyph-name="t" unicode="t" horiz-adv-x="682" 
d="M648 950v-100h-215v-598q0 -99 16 -131t57 -32q69 0 118 96l24 -34q-81 -179 -258 -179q-82 0 -138.5 37.5t-79 92t-22.5 173.5v575h-116v36q107 76 217 199t147 207h35v-342h215z" />
    <glyph glyph-name="u" unicode="u" 
d="M919 950v-800l-1 -44q9 -65 71 -69v-37h-354v123q-64 -75 -131.5 -113t-138.5 -38q-121 0 -189 81q-69 80 -69 238v484q0 74 -17.5 102t-60.5 36v37h362v-659q0 -90 22 -135t65 -45q46 0 85 31t72 92v541q0 72 -23 103t-92 35v37h399z" />
    <glyph glyph-name="v" unicode="v" horiz-adv-x="895" 
d="M876 950v-37q-73 -19 -148 -233l-251 -707h-46l-277 762q-42 115 -66 145t-68 33v37h476v-37q-84 -3 -84 -70q0 -28 19 -80l132 -361l118 333q19 55 19 89q0 81 -82 89v37h258z" />
    <glyph glyph-name="w" unicode="w" horiz-adv-x="1366" 
d="M1325 950v-37q-51 -26 -123 -238l-235 -699h-51l-229 688l-232 -688h-53l-276 800q-45 130 -86 137v37h431v-37q-78 0 -78 -53q0 -25 17 -76l126 -367l118 347l-22 66q-25 76 -96 83v37h467v-37q-85 -5 -85 -59q0 -24 18 -78l115 -349l103 309q20 59 20 91q0 67 -69 86
v37h220z" />
    <glyph glyph-name="x" unicode="x" horiz-adv-x="1131" 
d="M668 564l283 -413q51 -74 76 -94t65 -20v-37h-528v37h22q69 0 69 40q0 26 -48 96l-117 175l-112 -135q-66 -80 -66 -120q0 -56 96 -56v-37h-368v37q64 1 106 22.5t100 91.5l208 250l-271 390q-55 80 -80 101t-63 21v37h524v-37q-90 0 -90 -41q0 -26 33 -74l125 -181
l124 152q41 50 41 87q0 57 -84 57v37h336v-37q-66 -4 -103 -30.5t-116 -123.5z" />
    <glyph glyph-name="y" unicode="y" 
d="M989 950v-37q-54 -4 -87.5 -50.5t-105.5 -250.5l-262 -743q-66 -189 -131.5 -246t-152.5 -57q-79 0 -129 44.5t-50 115.5q0 59 36.5 98.5t90.5 39.5q108 0 108 -138q0 -55 33 -55q67 0 146 231l18 54l-290 701q-63 152 -94.5 196.5t-84.5 59.5v37h500v-37q-91 -4 -91 -59
q0 -39 32 -118l162 -392l119 344q29 86 29 138q0 48 -24.5 67t-82.5 20v37h311z" />
    <glyph glyph-name="z" unicode="z" horiz-adv-x="895" 
d="M864 950v-28l-492 -859h65q117 0 181 17.5t116 75.5t84 164h32l-32 -320h-791l499 885h-142q-113 0 -166 -37.5t-85 -173.5h-36v276h767z" />
    <glyph glyph-name="braceleft" unicode="{" horiz-adv-x="811" 
d="M720 1442v-46q-102 -16 -148.5 -71t-46.5 -116q0 -68 23 -163q25 -103 25 -179q0 -93 -75.5 -187t-250.5 -137q189 -55 258.5 -149t69.5 -176q0 -64 -24 -163q-25 -99 -25 -175q0 -154 194 -193v-46q-210 0 -311.5 104.5t-101.5 209.5q0 72 31 191q23 89 23 162
q0 76 -50.5 133t-145.5 70v61q104 15 150 79t46 134q0 71 -22 155q-31 119 -31 183q0 111 105 213t307 106z" />
    <glyph glyph-name="bar" unicode="|" horiz-adv-x="449" 
d="M116 1438h217v-1872h-217v1872z" />
    <glyph glyph-name="braceright" unicode="}" horiz-adv-x="811" 
d="M91 -360v46q101 17 148 72t47 115q0 68 -23 164q-25 102 -25 178q0 94 75 187.5t251 136.5q-190 56 -259.5 149.5t-69.5 175.5q0 64 25 163q24 99 24 176q0 153 -193 192v46q107 0 193.5 -29t153 -112.5t66.5 -172.5q0 -72 -31 -191q-23 -89 -23 -162q0 -76 50 -133
t146 -70v-61q-104 -15 -150 -79t-46 -134t22 -155q30 -119 30 -182q0 -126 -110 -219t-301 -101z" />
    <glyph glyph-name="asciitilde" unicode="~" horiz-adv-x="1366" 
d="M1168 883h69q-6 -176 -87 -268.5t-203 -92.5q-62 0 -124.5 18.5t-252.5 99.5q-139 59 -204 59q-141 0 -168 -176h-69q7 192 89.5 276.5t191.5 84.5q119 0 385 -117q143 -62 205 -62q75 0 118 50.5t50 127.5z" />
    <glyph glyph-name="afii10017" unicode="&#x410;" horiz-adv-x="1473" 
d="M840 398h-449l-68 -163q-24 -58 -24 -91q0 -57 40.5 -81t140.5 -26v-37h-451v37q134 3 244 271l462 1122h20l486 -1184q85 -209 201 -209v-37h-657v37h25q139 0 139 71q0 19 -17 63zM810 472l-193 473l-195 -473h388z" />
    <glyph glyph-name="afii10018" unicode="&#x411;" horiz-adv-x="1368" 
d="M38 1406h1177v-371h-38q-19 100 -62.5 167.5t-98.5 92.5t-148 25h-307v-552h231q269 0 394.5 -119.5t125.5 -271.5q0 -120 -79 -216.5t-178 -128.5t-251 -32h-766v37h22q107 0 140.5 42.5t33.5 158.5v978q0 91 -40 122t-134 31h-22v37zM561 681v-451q0 -106 41 -133.5
t92 -27.5q118 0 188.5 86t70.5 214q0 111 -50.5 187t-120 100.5t-221.5 24.5z" />
    <glyph glyph-name="afii10019" unicode="&#x412;" horiz-adv-x="1366" 
d="M919 740q165 -24 278 -118.5t113 -242.5q0 -118 -75 -207.5t-195.5 -130.5t-257.5 -41h-757v37h42q86 0 118.5 42.5t32.5 143.5v958q0 122 -42.5 155t-108.5 33h-29v37h686q266 0 396 -94.5t130 -248.5q0 -128 -82.5 -209t-248.5 -114zM544 1332v-565h29q166 0 249 71
t83 213q0 97 -45 167t-106.5 92t-167.5 22h-42zM544 693v-475q0 -85 26.5 -115t93.5 -30q133 0 208.5 83.5t75.5 212.5q0 127 -84 225.5t-291 98.5h-29z" />
    <glyph glyph-name="afii10020" unicode="&#x413;" horiz-adv-x="1323" 
d="M1303 1406v-372h-38q-22 110 -64 178t-86.5 88t-131.5 20h-411v-1124q0 -86 37 -122.5t141 -36.5h54v-37h-768v37h50q94 0 127 38t33 142v989q0 106 -41.5 134.5t-138.5 28.5h-30v37h1267z" />
    <glyph glyph-name="afii10021" unicode="&#x414;" horiz-adv-x="1473" 
d="M272 1406h1164v-37q-121 0 -159.5 -33.5t-38.5 -148.5v-979q0 -98 40.5 -131t157.5 -35v-436h-37q-8 157 -124 275.5t-328 118.5h-450q-208 0 -325 -114.5t-132 -279.5h-37v436q217 35 340 298.5t123 884.5q0 75 -35 109.5t-125 34.5h-34v37zM955 1320h-400v-123
q0 -280 -48.5 -610.5t-227.5 -499.5h572q68 0 86 17.5t18 82.5v1133z" />
    <glyph glyph-name="afii10022" unicode="&#x415;" horiz-adv-x="1366" 
d="M569 1333v-579h26q100 0 149.5 28t82.5 99t49 197h38v-715h-38q-15 130 -52.5 200t-88 93.5t-140.5 23.5h-26v-442q0 -97 25.5 -130t111.5 -33h134q338 0 448 359h35l-64 -434h-1222v37h54q67 0 109 31t42 155v958q0 122 -42.5 155t-108.5 33h-54v37h1186v-398h-36
q-21 122 -78 200.5t-132 101.5t-217 23h-191z" />
    <glyph glyph-name="afii10024" unicode="&#x416;" horiz-adv-x="2007" 
d="M673 0v37h22q92 0 122.5 39.5t30.5 137.5v471q-47 0 -72.5 -20t-47.5 -64l-304 -601h-394v37q75 1 132 105l204 367q76 137 130 175t132 49q-62 37 -91 99.5t-107 331.5q-38 131 -89 131q-31 0 -36 -65q-11 -139 -117 -139q-60 0 -96.5 39t-36.5 106q0 87 57 136.5
t154 49.5q84 0 134 -33t73.5 -88t67.5 -224q53 -199 111 -256.5t149 -57.5h47v430q0 95 -29.5 135.5t-123.5 40.5h-22v37h661v-37h-23q-92 0 -122 -40t-30 -136v-430h46q86 0 145.5 53t115.5 261q45 169 67 223t73 88t135 34q93 0 152 -47.5t59 -138.5q0 -64 -35 -104.5
t-98 -40.5q-106 0 -117 139q-5 65 -35 65q-24 0 -44 -20t-46 -111q-78 -271 -107.5 -332.5t-90.5 -98.5q155 -17 252 -204q4 -10 10 -20l205 -367q59 -104 131 -105v-37h-394l-304 601q-23 44 -49 64t-71 20v-471q0 -97 30 -137t122 -40h23v-37h-661z" />
    <glyph glyph-name="afii10025" unicode="&#x417;" horiz-adv-x="1118" 
d="M115 1438h37q10 -70 51 -70q26 0 69 20q108 50 265 50q219 0 339.5 -108.5t120.5 -248.5q0 -126 -87 -211t-262 -129q187 -24 292.5 -129.5t105.5 -250.5q0 -180 -152 -284.5t-384 -104.5q-301 0 -460 199l44 44q124 -157 306 -157q156 0 219.5 94t63.5 220
q0 154 -77 230.5t-231 76.5h-62v89h62q138 0 207 75t69 224q0 145 -54 217.5t-162 72.5q-136 0 -204.5 -102t-68.5 -234h-47v417z" />
    <glyph glyph-name="afii10026" unicode="&#x418;" horiz-adv-x="1706" 
d="M37 1406h703v-37q-103 0 -143 -31.5t-40 -144.5v-832l593 845q0 90 -34 126.5t-148 36.5v37h701v-37h-22q-96 0 -134 -32.5t-38 -118.5v-1020q0 -71 18.5 -102t49 -43.5t126.5 -15.5v-37h-701v37q106 0 144 36t38 141v836l-593 -844q0 -99 38 -134t145 -35v-37h-703v37
h22q99 0 135.5 33t36.5 118v1030q0 82 -34.5 116.5t-137.5 34.5h-22v37z" />
    <glyph glyph-name="afii10027" unicode="&#x419;" horiz-adv-x="1706" 
d="M868 1512q-211 0 -300 57t-89 133q0 41 29 67.5t71 26.5q81 0 125 -104q42 -103 159 -103q74 0 109 23t65 85q47 99 126 99q42 0 71 -27t29 -74q0 -79 -95 -131t-300 -52zM37 1406h703v-37q-103 0 -143 -31.5t-40 -144.5v-867l593 916q-7 72 -46.5 99.5t-135.5 27.5v37
h701v-37h-22q-96 0 -134 -32.5t-38 -118.5v-1020q0 -71 18.5 -102t49 -43.5t126.5 -15.5v-37h-701v37q106 0 144 36t38 141v866l-593 -915q8 -73 47.5 -100.5t135.5 -27.5v-37h-703v37h22q99 0 135.5 33t36.5 118v1030q0 82 -34.5 116.5t-137.5 34.5h-22v37z" />
    <glyph glyph-name="afii10028" unicode="&#x41a;" horiz-adv-x="1548" 
d="M37 1406h703v-37q-80 -1 -111 -11t-52 -43.5t-21 -103.5v-446h95q105 0 135.5 8.5t64 44.5t49.5 74t64 215q46 171 118 243t200 72q106 0 159.5 -53t53.5 -129q0 -64 -39 -106.5t-95 -42.5q-106 0 -119 134q-5 47 -11.5 60t-25.5 13q-104 0 -169 -259
q-42 -166 -72.5 -216t-84.5 -102q115 -20 197 -150l243 -391q87 -140 197 -143v-37h-440l-369 585q-41 65 -69 79t-82 14v-483q0 -66 19.5 -100.5t51 -45.5t113.5 -12v-37h-703v37q94 2 127.5 14t49.5 43.5t16 111.5v994q0 80 -15.5 111.5t-47.5 43.5t-130 14v37z" />
    <glyph glyph-name="afii10029" unicode="&#x41b;" horiz-adv-x="1475" 
d="M578 1320v-407q0 -524 -76 -726.5t-281 -202.5q-117 0 -170 54.5t-53 128.5q0 64 37.5 105t95.5 41q102 0 116 -121q7 -56 17 -73t37 -17q87 0 137.5 174.5t50.5 599.5v305q0 124 -33 156t-125 32h-33v37h1142v-37h-29q-98 0 -132 -37t-34 -139v-980q0 -102 32.5 -139
t133.5 -37h29v-37h-702v37h25q90 0 124.5 37.5t34.5 122.5v1123h-344z" />
    <glyph glyph-name="afii10030" unicode="&#x41c;" horiz-adv-x="2027" 
d="M1018 440l435 966h545v-37h-35q-85 0 -117.5 -42.5t-32.5 -145.5v-958q0 -98 31.5 -142t118.5 -44h35v-37h-713v37h50q85 0 118 42t33 144v1077l-586 -1300h-29l-583 1290v-1033q0 -95 14 -132t59 -62.5t100 -25.5h25v-37h-457v37q63 0 109.5 27.5t61.5 66t15 126.5v924
q0 99 -32 143.5t-119 44.5h-35v37h552z" />
    <glyph glyph-name="afii10031" unicode="&#x41d;" horiz-adv-x="1685" 
d="M1141 679h-597v-456q0 -98 31.5 -142t119.5 -44h37v-37h-698v37h32q84 0 117.5 42t33.5 144v958q0 100 -32.5 144t-118.5 44h-32v37h698v-37h-37q-85 0 -118 -42.5t-33 -145.5v-416h597v416q0 100 -32.5 144t-118.5 44h-32v37h693v-37h-33q-84 0 -117.5 -42.5
t-33.5 -145.5v-958q0 -98 32 -142t119 -44h33v-37h-693v37h32q84 0 117.5 42t33.5 144v456z" />
    <glyph glyph-name="afii10032" unicode="&#x41e;" horiz-adv-x="1685" 
d="M1600 698q0 -308 -207 -517t-550 -209q-209 0 -374 81.5t-274.5 250t-109.5 402.5q0 237 113.5 406t284.5 247.5t357 78.5q331 0 545.5 -206t214.5 -534zM1235 688q0 326 -109 500.5t-283 174.5q-176 0 -285 -171t-109 -486q0 -292 103 -478t287 -186q180 0 288 174
t108 472z" />
    <glyph glyph-name="afii10033" unicode="&#x41f;" horiz-adv-x="1706" 
d="M1149 1320h-592v-1119q0 -97 41.5 -129.5t143.5 -34.5v-37h-704v37h35q91 0 124.5 34t33.5 124v1016q0 71 -16 102t-49.5 43.5t-127.5 12.5v37h1630v-37q-92 0 -125.5 -11.5t-50.5 -42.5t-17 -104v-1016q0 -71 16 -102t50 -43.5t127 -12.5v-37h-704v37q104 3 144.5 35.5
t40.5 128.5v1119z" />
    <glyph glyph-name="afii10034" unicode="&#x420;" horiz-adv-x="1366" 
d="M564 642v-419q0 -98 31.5 -142t117.5 -44h39v-37h-715v37h50q85 0 118 42.5t33 143.5v958q0 100 -32 144t-119 44h-50v37h715q297 0 431 -113.5t134 -265.5q0 -150 -130 -267.5t-474 -117.5h-149zM564 1334v-617h106q148 0 221.5 75t73.5 225q0 148 -60 232.5t-235 84.5
h-106z" />
    <glyph glyph-name="afii10035" unicode="&#x421;" horiz-adv-x="1473" 
d="M1391 1436v-471h-40q-35 195 -165 289t-272 94q-124 0 -224 -71t-164.5 -209.5t-64.5 -365.5q0 -333 127.5 -488.5t317.5 -155.5q141 0 266 77.5t192 187.5v-121q-210 -230 -524 -230q-347 0 -546 211t-199 497q0 315 220.5 536.5t511.5 221.5q145 0 317 -70
q71 -30 108 -30q80 0 99 98h40z" />
    <glyph glyph-name="afii10036" unicode="&#x422;" horiz-adv-x="1366" 
d="M1316 1406v-371h-38q-40 293 -300 293h-132v-1105q0 -98 32 -142t119 -44h51v-37h-733v37h54q67 0 108.5 31t41.5 155v1105h-143q-83 0 -137 -27.5t-97 -102.5t-52 -163h-41v371h1267z" />
    <glyph glyph-name="afii10037" unicode="&#x423;" horiz-adv-x="1557" 
d="M25 1406h663v-37h-39q-118 0 -118 -58q0 -29 30 -78l389 -644l292 576q35 69 35 110q0 94 -166 94h-34v37h454v-37q-74 -16 -108.5 -49.5t-88.5 -139.5l-459 -915q-55 -110 -129 -201q-74 -92 -204 -92q-102 0 -165 47t-63 137q0 64 35 105t97 41q58 0 82 -28t33 -94
q13 -93 73 -93q36 0 73.5 44.5t77.5 133.5l-599 986q-46 77 -72.5 97.5t-88.5 20.5v37z" />
    <glyph glyph-name="afii10038" unicode="&#x424;" horiz-adv-x="1798" 
d="M1257 1406v-37h-40q-91 0 -123 -38t-32 -123q197 -1 330 -44.5t230.5 -163.5t97.5 -291q0 -157 -81.5 -263.5t-215 -169.5t-361.5 -64q0 -95 30 -135t125 -40h40v-37h-716v37h41q97 0 126 40.5t29 134.5q-217 1 -348.5 58t-220.5 165.5t-89 273.5q0 129 53 226t157.5 166
t201.5 87.5t246 19.5q0 86 -32.5 123.5t-122.5 37.5h-41v37h716zM737 1135q-109 0 -172.5 -27.5t-111.5 -123t-48 -268.5q0 -170 43 -266.5t111.5 -130.5t177.5 -34v850zM1062 1135v-850q114 0 183.5 37.5t109 133.5t39.5 267q0 165 -48 260.5t-110 123.5t-174 28z" />
    <glyph glyph-name="afii10039" unicode="&#x425;" horiz-adv-x="1473" 
d="M858 822l385 -609q109 -172 195 -176v-37h-654v37q130 0 130 66q0 31 -56 120l-205 329l-220 -294q-61 -81 -61 -133q0 -80 179 -88v-37h-517v37q94 0 170 71t145 164l259 348l-371 584q-60 94 -99 126.5t-104 38.5v37h676v-37q-81 -1 -109 -15t-28 -53q0 -31 35 -88
l206 -325l165 223q72 98 72 152q0 106 -150 106v37h493v-37q-89 -3 -146.5 -52t-120.5 -134z" />
    <glyph glyph-name="afii10040" unicode="&#x426;" horiz-adv-x="1706" 
d="M60 1406h667v-37q-101 0 -136 -32t-35 -126v-1023q0 -66 18 -83.5t88 -17.5h381q71 0 89 17.5t18 83.5v1023q0 102 -37 130t-134 28v37h667v-37q-96 0 -133.5 -28t-37.5 -130v-1016q0 -95 35.5 -126.5t135.5 -31.5v-431h-38q-7 105 -64 196t-152.5 144.5t-305.5 53.5
h-1026v37q101 0 135.5 32.5t34.5 125.5v1016q0 95 -35 126.5t-135 31.5v37z" />
    <glyph glyph-name="afii10041" unicode="&#x427;" horiz-adv-x="1579" 
d="M24 1406h707v-37q-104 0 -144.5 -30.5t-40.5 -156.5v-368q0 -76 43.5 -114.5t130.5 -38.5q150 0 306 78v443q0 127 -41 157t-144 30v37h707v-37q-91 -1 -123.5 -11.5t-53 -43.5t-20.5 -96v-1030q0 -62 20.5 -95.5t53 -44t123.5 -11.5v-37h-707v37q113 0 149 38t36 149
v432q-70 -38 -217.5 -84t-258.5 -46q-136 0 -210 46.5t-96.5 103t-22.5 198.5v344q0 62 -20.5 95.5t-53 44t-123.5 11.5v37z" />
    <glyph glyph-name="afii10042" unicode="&#x428;" horiz-adv-x="2245" 
d="M36 1406h593v-37q-69 -3 -98.5 -40.5t-29.5 -133.5v-1008q0 -67 18 -83.5t89 -16.5h258q59 0 76.5 18t17.5 82v1008q0 95 -29.5 133t-99.5 41v37h583v-37q-69 -3 -99 -40.5t-30 -133.5v-1008q0 -67 16.5 -83.5t86.5 -16.5h253q67 0 85 17t18 83v1008q0 95 -29.5 133
t-98.5 41v37h593v-37q-60 -2 -99.5 -33t-39.5 -129v-1008q0 -81 31.5 -120.5t107.5 -41.5v-37h-2173v37q59 2 99 33t40 129v1008q0 81 -32 120.5t-107 41.5v37z" />
    <glyph glyph-name="afii10043" unicode="&#x429;" horiz-adv-x="2245" 
d="M36 0v37q59 2 99 33.5t40 129.5v1007q0 81 -32 120.5t-107 41.5v37h593v-37q-69 -3 -98.5 -40.5t-29.5 -133.5v-1008l-1 -30q0 -43 23 -56.5t85 -13.5h258q59 0 76.5 18t17.5 82v1008q0 95 -29.5 133t-99.5 41v37h583v-37q-69 -3 -99 -40.5t-30 -133.5v-1008
q0 -67 16.5 -83.5t86.5 -16.5h253q67 0 85 17t18 83v1008q0 95 -29.5 133t-98.5 41v37h593v-37q-60 -2 -99.5 -33t-39.5 -129v-1007q0 -82 31.5 -121.5t107.5 -41.5v-431h-37q-8 105 -65.5 196.5t-153.5 144.5t-304 53h-1613z" />
    <glyph glyph-name="afii10044" unicode="&#x42a;" horiz-adv-x="1579" 
d="M34 1406h918v-37q-121 0 -158 -33t-37 -132v-436h209q254 0 399.5 -104t145.5 -280q0 -115 -76.5 -211.5t-191.5 -134.5t-299 -38h-709v37h31q80 0 122.5 31t42.5 141v1111h-35q-105 0 -161.5 -23t-98 -82.5t-65.5 -179.5h-37v371zM757 681v-448q0 -93 26 -128.5
t91 -35.5q113 0 192.5 75t79.5 214q0 140 -82 231.5t-307 91.5z" />
    <glyph glyph-name="afii10045" unicode="&#x42b;" horiz-adv-x="2048" 
d="M2012 37v-37h-720v37h46q85 0 118 42.5t33 143.5v958q0 99 -32 143.5t-119 44.5h-46v37h720v-37h-45q-85 0 -118.5 -42.5t-33.5 -145.5v-958q0 -98 32 -142t120 -44h45zM39 1406h722v-37q-118 0 -158.5 -32t-40.5 -131v-438h219q192 0 295 -45t171.5 -138t68.5 -204
q0 -144 -128 -262.5t-423 -118.5h-726v37q125 0 161 33.5t36 146.5v972q0 114 -36.5 147t-160.5 33v37zM562 681v-432q0 -102 34 -141t103 -39q99 0 176 79t77 210q0 138 -76.5 230.5t-226.5 92.5h-87z" />
    <glyph glyph-name="afii10046" unicode="&#x42c;" horiz-adv-x="1366" 
d="M35 1406h722v-37q-118 0 -158.5 -32t-40.5 -131v-438h219q192 0 295 -45t171.5 -138t68.5 -204q0 -144 -128 -262.5t-423 -118.5h-726v37q125 0 161 33.5t36 146.5v972q0 114 -36.5 147t-160.5 33v37zM558 681v-432q0 -102 34 -141t103 -39q99 0 176 79t77 210
q0 138 -76.5 230.5t-226.5 92.5h-87z" />
    <glyph glyph-name="afii10047" unicode="&#x42d;" horiz-adv-x="1429" 
d="M420 768v-87h568q0 -306 -118 -466.5t-330 -160.5q-229 0 -432 222l-47 -43q224 -261 548 -261q312 0 528.5 194t216.5 540q0 310 -207.5 521t-507.5 211q-181 0 -319 -61q-67 -30 -101 -30q-84 0 -103 91h-37v-462h37q94 373 437 373q203 0 319 -161.5t116 -419.5h-568z
" />
    <glyph glyph-name="afii10048" unicode="&#x42e;" horiz-adv-x="2359" 
d="M554 764h223q17 277 222 475.5t530 198.5q223 0 385 -89t266 -251t104 -386q0 -332 -221 -536t-534 -204q-216 0 -395 100.5t-267 260t-90 344.5h-223v-506q0 -73 35 -103.5t122 -30.5h23v-37h-700v37h30q61 0 100 19t52 50t13 115v964q0 83 -13.5 115t-53 50.5
t-98.5 18.5h-30v37h700v-37h-23q-92 0 -124.5 -30.5t-32.5 -103.5v-471zM1138 716q0 -339 116 -504t277 -165q166 0 278 178t112 473q0 325 -110 496.5t-281 171.5t-281.5 -177.5t-110.5 -472.5z" />
    <glyph glyph-name="afii10049" unicode="&#x42f;" horiz-adv-x="1473" 
d="M915 642v-450q0 -89 -38 -122t-139 -33h-21v-37h720v37h-20q-100 0 -139 32t-39 123v1022q0 91 39 123t139 32h20v37h-699q-285 0 -409.5 -112t-124.5 -276q0 -132 77.5 -219t232.5 -129l-290 -463q-104 -165 -184 -170v-37h411l401 642h63zM915 1332v-615h-78
q-168 0 -233.5 83t-65.5 224q0 117 42.5 187t108.5 95.5t177 25.5h49z" />
    <glyph glyph-name="dagger" unicode="&#x2020;" 
d="M534 891q9 -87 23.5 -118t87.5 -129q-99 -262 -105 -794q-2 -228 -6 -251h-43q-5 512 -33.5 715t-77.5 330q58 70 78 112t33 135q-75 -5 -164 -55q-74 -41 -115 -41q-52 0 -86 34t-34 83q0 50 34.5 82t86.5 32q41 0 125 -46q76 -42 153 -46q-2 50 -10.5 80t-48.5 118
q-44 95 -44 161q0 61 34.5 103t89.5 42q56 0 91 -43t35 -98q0 -64 -52 -179q-47 -106 -52 -184q81 8 150 45q90 50 132 50q54 0 87 -35.5t33 -79.5q0 -48 -34.5 -82t-81.5 -34q-48 0 -117 39q-74 42 -169 54z" />
    <glyph glyph-name="degree" unicode="&#xb0;" horiz-adv-x="811" 
d="M405 1438q140 0 243 -99t103 -247q0 -142 -101.5 -244t-244.5 -102q-144 0 -245 101.5t-101 244.5t102 244.5t244 101.5zM405 1307q-88 0 -151.5 -63t-63.5 -152t63 -152t152 -63t152 63.5t63 151.5q0 89 -63.5 152t-151.5 63z" />
    <glyph glyph-name="section" unicode="&#xa7;" 
d="M725 158q72 -56 108 -125t36 -152q0 -127 -98.5 -221t-272.5 -94q-145 0 -236.5 69t-91.5 175q0 54 32 92t86 38q46 0 80 -30.5t34 -76.5q0 -27 -9 -56q-11 -39 -11 -49q0 -30 33 -50.5t83 -20.5q90 0 140 44.5t50 103.5q0 65 -49 118q-50 53 -242 187
q-172 121 -238.5 204t-66.5 204q0 201 203 361q-70 62 -105 128.5t-35 138.5q0 122 92.5 221t277.5 99q163 0 249 -74t86 -168q0 -61 -36.5 -95.5t-82.5 -34.5q-49 0 -81.5 35t-32.5 88q0 21 9 55q8 25 8 35q0 35 -28.5 52t-86.5 17q-81 0 -134 -44t-53 -110q0 -54 43 -103
q43 -50 148 -123q171 -118 245.5 -182.5t116 -142.5t41.5 -163q0 -203 -211 -350zM669 208q100 90 100 188q0 78 -57.5 149.5t-238.5 198.5l-53 38q-52 40 -61 45q-101 -88 -101 -192q0 -64 52.5 -137.5t358.5 -289.5z" />
    <glyph glyph-name="bullet" unicode="&#x2022;" horiz-adv-x="725" 
d="M657 703q0 -122 -87 -208.5t-208 -86.5q-123 0 -209.5 86.5t-86.5 208.5t87 209t209 87q126 0 210.5 -88.5t84.5 -207.5z" />
    <glyph glyph-name="paragraph" unicode="&#xb6;" horiz-adv-x="1153" 
d="M664 1328v-1760h-104v877q-301 10 -429.5 147t-128.5 345q0 186 93.5 290.5t190 141.5t409.5 37h456v-45h-45q-67 0 -99 -22t-42 -52.5t-10 -136.5v-1582h-102v1760h-189z" />
    <glyph glyph-name="afii10055" unicode="&#x406;" horiz-adv-x="789" 
d="M755 37v-37h-721v37h46q85 0 118 42.5t33 143.5v958q0 99 -32 143.5t-119 44.5h-46v37h721v-37h-46q-85 0 -118.5 -42.5t-33.5 -145.5v-958q0 -98 32 -142t120 -44h46z" />
    <glyph glyph-name="registered" unicode="&#xae;" horiz-adv-x="1579" 
d="M791 1438q299 0 514 -214t215 -518q0 -301 -215 -516t-516 -215q-302 0 -516 214.5t-214 516.5q0 304 216.5 518t515.5 214zM789 1344q-160 0 -311 -81.5t-239 -234t-88 -322.5q0 -264 187 -451.5t451 -187.5t451.5 188t187.5 451q0 264 -188 451t-451 187zM399 1131h373
q136 0 204.5 -20.5t114.5 -77t46 -129.5q0 -80 -46 -133.5t-138 -79.5l141 -257q54 -98 108 -102v-35h-249l-211 379h-48v-204q0 -87 23.5 -112t100.5 -28v-35h-436v35q60 0 84 23t24 117v486q0 84 -17.5 107.5t-73.5 29.5v36zM694 729q36 -5 59 -5q65 0 114 49.5t49 135.5
q0 88 -45.5 132t-137.5 44h-39v-356z" />
    <glyph glyph-name="copyright" unicode="&#xa9;" horiz-adv-x="1579" 
d="M791 1438q299 0 514 -214t215 -518q0 -301 -215 -516t-516 -215q-302 0 -516 214.5t-214 516.5q0 304 216.5 518t515.5 214zM789 1344q-160 0 -311 -81.5t-239 -234t-88 -322.5q0 -264 187 -451.5t451 -187.5t451.5 188t187.5 451q0 264 -188 451t-451 187zM1135 1146
v-272h-40q-17 104 -89 163.5t-164 59.5q-120 0 -193.5 -94t-73.5 -281q0 -219 80 -302t182 -83q152 0 269 142v-72q-125 -130 -328 -130q-186 0 -310 114t-124 305q0 199 131 325.5t323 126.5q88 0 202 -42q33 -12 48 -12q40 0 47 52h40z" />
    <glyph glyph-name="trademark" unicode="&#x2122;" horiz-adv-x="2036" 
d="M12 1406h777v-226h-35q-3 75 -42 125t-152 50h-38v-588q0 -85 20 -109t83 -24v-35h-454v35q67 2 85 18.5t18 114.5v588h-35q-185 0 -194 -175h-33v226zM845 1406h368l231 -493l229 493h347v-37q-64 0 -82.5 -24.5t-18.5 -108.5v-474q0 -76 19.5 -100.5t81.5 -27.5v-35
h-462v35q75 1 95 24t20 104v506l-320 -669h-24l-318 669v-501q0 -83 20 -107.5t94 -25.5v-35h-280v35q71 3 90 25t19 108v469q0 88 -21 110.5t-88 22.5v37z" />
    <glyph glyph-name="afii10051" unicode="&#x402;" horiz-adv-x="1685" 
d="M45 1406h1196v-338h-37q-45 151 -116.5 201.5t-207.5 50.5h-108v-529q95 91 188.5 136t186.5 45q209 0 337.5 -144t128.5 -344t-119 -350t-298 -150q-69 0 -146 53v57q57 -50 94 -50q66 0 91.5 93.5t25.5 302.5q0 185 -56 277.5t-169 92.5q-69 0 -135 -29.5t-129 -88.5
v-499q0 -95 38.5 -125.5t142.5 -30.5v-37h-703v37q113 0 154 32.5t41 123.5v1127h-88q-211 0 -275 -252h-37v338z" />
    <glyph glyph-name="afii10099" unicode="&#x452;" horiz-adv-x="1012" 
d="M30 1197h89v54q0 99 -89 118v37h370v-209h381v-63h-381v-311q48 75 108 112t132 37q131 0 215.5 -141t84.5 -445q0 -369 -145 -593.5t-369 -224.5v38q104 28 146.5 120t56 277.5t13.5 238.5l-1 112v278q0 151 -24 187t-59 36q-36 0 -75.5 -31.5t-82.5 -95.5v-573
q0 -99 89 -118v-37h-459v37q89 19 89 118v979h-89v63z" />
    <glyph glyph-name="afii10052" unicode="&#x403;" horiz-adv-x="1323" 
d="M1000 1737l-446 -227h-148l148 227h446zM1303 1406v-372h-38q-22 110 -64 178t-86.5 88t-131.5 20h-411v-1124q0 -86 37 -122.5t141 -36.5h54v-37h-768v37h50q94 0 127 38t33 142v989q0 106 -41.5 134.5t-138.5 28.5h-30v37h1267z" />
    <glyph glyph-name="afii10100" unicode="&#x453;" horiz-adv-x="866" 
d="M718 1442l-334 -350h-85l117 350h302zM69 950h782v-247h-38q-14 95 -46.5 139.5t-148.5 44.5h-191v-697q0 -97 19 -119.5t57 -33.5v-37h-434v37q48 15 62 44t14 109v570q0 81 -14.5 109.5t-61.5 43.5v37z" />
    <glyph glyph-name="plusminus" unicode="&#xb1;" horiz-adv-x="1366" 
d="M127 1018h452v451h208v-451h452v-209h-452v-452h-208v452h-452v209zM127 208h1112v-208h-1112v208z" />
    <glyph glyph-name="afii10103" unicode="&#x456;" horiz-adv-x="555" 
d="M288 1438q66 0 113 -45.5t47 -112.5q0 -65 -46.5 -111.5t-112.5 -46.5t-112 46.5t-46 112.5q0 63 45 110t112 47zM425 950v-729q0 -109 19.5 -144.5t82.5 -39.5v-37h-501v37q72 0 95 34t23 150v505q0 118 -23 152.5t-95 34.5v37h399z" />
    <glyph glyph-name="mu" unicode="&#xb5;" horiz-adv-x="1173" 
d="M135 950h287v-619q0 -144 15.5 -181t71.5 -37q49 0 92 31.5t79 93.5v712h286v-630q0 -126 15.5 -159.5t56.5 -33.5q63 0 78 148h44q-1 -149 -82.5 -226t-183.5 -77q-81 0 -133 40.5t-74 120.5q-70 -80 -145 -120.5t-155 -40.5q-76 0 -153 57q0 -96 36 -226
q24 -86 24 -121q0 -62 -33 -99.5t-89 -37.5q-112 0 -112 120q0 47 25 143q33 129 41.5 204t8.5 256v682z" />
    <glyph glyph-name="afii10057" unicode="&#x408;" horiz-adv-x="1131" 
d="M363 1369v37h734v-37h-42q-67 0 -109 -31.5t-42 -156.5v-763q0 -141 -41 -232.5t-154.5 -152.5t-244.5 -61q-198 0 -308 88.5t-110 196.5q0 77 45 117.5t105 40.5t101.5 -38.5t41.5 -97.5q0 -54 -43 -111q-22 -28 -22 -44q0 -31 40.5 -53t98.5 -22q70 0 117.5 41.5
t47.5 177.5v913q0 121 -42 154.5t-109 33.5h-64z" />
    <glyph glyph-name="afii10053" unicode="&#x404;" horiz-adv-x="1429" 
d="M1009 768v-87h-568q0 -306 118 -466.5t330 -160.5q229 0 432 222l47 -43q-224 -261 -548 -261q-312 0 -528.5 194t-216.5 540q0 310 207.5 521t507.5 211q181 0 319 -61q67 -30 101 -30q84 0 103 91h37v-462h-37q-94 373 -437 373q-203 0 -319 -161.5t-116 -419.5h568z
" />
    <glyph glyph-name="afii10101" unicode="&#x454;" horiz-adv-x="895" 
d="M574 523v-63h-220q-1 -26 -1 -38q0 -175 60 -263t180 -88q127 0 228 109l33 -17q-97 -191 -339 -191q-206 0 -332 148.5t-126 374.5q0 212 122 344.5t308 132.5q72 0 192 -37q25 -8 43 -8q40 0 49 45h37l13 -299h-37q-68 226 -240 226q-96 0 -144 -81t-48 -243
q0 -17 2 -52h220z" />
    <glyph glyph-name="afii10056" unicode="&#x407;" horiz-adv-x="789" 
d="M141 1799q59 0 103 -42t44 -106q0 -61 -43.5 -104.5t-103.5 -43.5q-61 0 -104.5 43.5t-43.5 104.5q0 63 44 105.5t104 42.5zM648 1798q59 0 103 -41.5t44 -105.5q0 -61 -43.5 -103.5t-103.5 -42.5t-103.5 43t-43.5 103q0 61 43.5 104t103.5 43zM754 37v-37h-720v37h46
q85 0 118 42.5t33 143.5v958q0 99 -32 143.5t-119 44.5h-46v37h720v-37h-45q-86 0 -119 -42.5t-33 -145.5v-958q0 -121 43 -153.5t109 -32.5h45z" />
    <glyph glyph-name="afii10104" unicode="&#x457;" horiz-adv-x="555" 
d="M464 1384q54 0 94 -38t40 -95q0 -55 -39.5 -94t-94.5 -39t-94 39t-39 94t39.5 94t93.5 39zM89 1383q55 0 94 -39t39 -94q0 -54 -39 -93.5t-94 -39.5t-94 39.5t-39 93.5q0 56 39 94.5t94 38.5zM426 950v-729q0 -109 19.5 -144.5t83.5 -39.5v-37h-502v37q72 0 95.5 34
t23.5 150v505q0 118 -23 152.5t-96 34.5v37h399z" />
    <glyph glyph-name="afii10058" unicode="&#x409;" horiz-adv-x="2005" 
d="M641 1320v-597q0 -390 -127.5 -564.5t-313.5 -174.5q-92 0 -147 52t-55 131q0 63 36.5 104.5t96.5 41.5q106 0 117 -124q8 -86 50 -86q93 0 173.5 150t80.5 430v498q0 123 -32.5 155.5t-125.5 32.5h-33v37h1048v-37q-83 -4 -111.5 -38.5t-28.5 -123.5v-439
q253 0 374 -28.5t215.5 -133t94.5 -232.5q0 -162 -135.5 -268t-342.5 -106h-696v37q93 0 127.5 40t34.5 134v1109h-300zM1269 681v-445q0 -96 19.5 -131.5t79.5 -35.5q94 0 158 85t64 209q0 139 -75.5 229t-216.5 90q-13 0 -29 -1z" />
    <glyph glyph-name="afii1016" unicode="&#x459;" horiz-adv-x="1579" 
d="M1072 950v-37q-54 -10 -72 -42t-18 -112v-233h148q197 0 298 -78.5t101 -188.5q0 -115 -101 -187t-298 -72h-522v37q54 10 72.5 42t18.5 112v693h-275v-393q0 -268 -55 -384t-179 -116q-71 0 -123.5 43t-52.5 114q0 61 36 100t90 39q53 0 80.5 -36t27.5 -82v-41
q0 -34 21 -34q46 0 69 102.5t23 306.5v230q0 106 -22.5 141t-86.5 39v37h820zM982 462v-298q0 -102 62 -102q77 0 133.5 62t56.5 154q0 69 -53.5 127t-158.5 58q-16 0 -40 -1z" />
    <glyph glyph-name="afii10059" unicode="&#x40a;" horiz-adv-x="2048" 
d="M546 768h403v451q0 86 -32.5 115.5t-126.5 34.5v37h630v-37q-81 0 -112 -38t-31 -125v-438q282 0 406.5 -27.5t218.5 -130.5t94 -243q0 -158 -126.5 -262.5t-403.5 -104.5h-676v37q83 2 121 29t38 123v492h-403v-492q0 -94 37 -121.5t122 -30.5v-37h-671v37
q107 2 145.5 33.5t38.5 118.5v1030q0 87 -38 118.5t-146 31.5v37h671v-37q-93 -3 -126 -33.5t-33 -116.5v-451zM1277 681v-453q0 -88 22.5 -123.5t92.5 -35.5q100 0 168.5 84.5t68.5 210.5q0 109 -49 186t-116 104t-187 27z" />
    <glyph glyph-name="afii10107" unicode="&#x45a;" horiz-adv-x="1589" 
d="M708 526v233q0 81 -18.5 113t-72.5 41v37h464v-37q-54 -10 -72.5 -42t-18.5 -112v-233h149q203 0 300.5 -80.5t97.5 -186.5q0 -107 -95 -183t-303 -76h-522v37q54 10 72.5 42t18.5 112v270h-279v-276q0 -76 15 -105.5t58 -42.5v-37h-448v37q91 7 91 148v580
q0 141 -91 148v37h448v-37q-43 -13 -58 -42.5t-15 -105.5v-239h279zM990 461v-296q0 -103 65 -103q72 0 130 61.5t58 153.5q0 68 -53 127t-158 59q-15 0 -42 -2z" />
    <glyph glyph-name="afii10105" unicode="&#x458;" horiz-adv-x="555" 
d="M279 1438q67 0 113.5 -45.5t46.5 -112.5q0 -65 -46.5 -111.5t-111.5 -46.5q-66 0 -112.5 47t-46.5 112q0 63 45 110t112 47zM428 950v-937q0 -169 -19 -248t-92 -139t-178 -60q-82 0 -131 35.5t-49 87.5q0 36 27 64.5t71 28.5q64 0 101 -86q25 -58 56 -58q24 0 36 15
t12 45q0 37 -57 167q-57 132 -57 273v589q0 110 -20.5 148t-80.5 38h-21v37h402z" />
    <glyph glyph-name="afii10054" unicode="&#x405;" horiz-adv-x="1237" 
d="M1076 1438l10 -457h-39q-24 151 -158 264t-318 113q-125 0 -205 -60.5t-80 -149.5q0 -81 67 -135t260 -117q211 -69 316 -123.5t172 -154.5t67 -223q0 -188 -149.5 -305.5t-389.5 -117.5q-139 0 -320 67q-62 23 -90 23q-71 0 -108 -90h-42v515h40q34 -203 176 -323
t334 -120q145 0 232 60t87 163q0 101 -81 166q-82 64 -283 134t-296 121.5t-151 139.5t-56 200q0 173 135.5 291.5t343.5 118.5q145 0 307 -73q79 -35 108 -35q73 0 73 108h38z" />
    <glyph glyph-name="logicalnot" unicode="&#xac;" horiz-adv-x="1366" 
d="M127 1045h1112v-685h-209v477h-903v208z" />
    <glyph glyph-name="guillemotleft" unicode="&#xab;" 
d="M990 982l-238 -460l238 -465h-75l-427 465l427 460h75zM538 982l-240 -460l240 -465h-79l-426 465l426 460h79z" />
    <glyph glyph-name="guillemotright" unicode="&#xbb;" 
d="M33 982h75l427 -460l-427 -465h-75l239 465zM486 982h78l426 -460l-426 -465h-78l239 465z" />
    <glyph glyph-name="ellipsis" unicode="&#x2026;" horiz-adv-x="2048" 
d="M344 308q69 0 118 -49t49 -119q0 -69 -49 -118.5t-118 -49.5q-68 0 -117 49.5t-49 118.5q0 70 49 119t117 49zM1026 307q66 0 115.5 -48t49.5 -119q0 -69 -48.5 -118.5t-116.5 -49.5t-117 49t-49 119q0 69 49 118t117 49zM1705 306q68 0 116 -48.5t48 -116.5t-48 -116
t-116 -48t-116.5 48t-48.5 116q0 71 49 118t116 47z" />
    <glyph glyph-name="nbspace" unicode="&#xa0;" horiz-adv-x="512" 
 />
    <glyph glyph-name="afii10060" unicode="&#x40b;" horiz-adv-x="1685" 
d="M763 791q99 91 193 136t183 45q122 0 210 -59.5t115.5 -136t27.5 -193.5v-391q0 -79 33.5 -115.5t124.5 -39.5v-37h-628v37q142 7 142 147v387q0 132 -46 176t-112 44q-60 0 -120.5 -24t-122.5 -73v-502q0 -98 40 -126.5t141 -28.5v-37h-703v37q126 0 160.5 36t34.5 119
v1128h-88q-211 0 -275 -252h-37v338h1128v-338h-38q-45 151 -116.5 201.5t-206.5 50.5h-40v-529z" />
    <glyph glyph-name="afii10108" unicode="&#x45b;" horiz-adv-x="1022" 
d="M400 823q58 75 126 112t146 37q250 0 250 -336v-469q0 -53 14.5 -84t61.5 -46v-37h-433v37q76 20 76 130v498q0 176 -89 176q-37 0 -75 -30t-77 -90v-566q0 -99 89 -118v-37h-459v37q89 19 89 118v979h-89v63h89v54q0 99 -89 118v37h370v-209h381v-63h-381v-311z" />
    <glyph glyph-name="afii10061" unicode="&#x40c;" horiz-adv-x="1548" 
d="M1107 1737l-446 -227h-148l148 227h446zM37 1406h703v-37q-80 -1 -111 -11t-52 -43.5t-21 -103.5v-446h95q105 0 135.5 8.5t64 44.5t49.5 74t64 215q46 171 118 243t200 72q106 0 159.5 -53t53.5 -129q0 -64 -39 -106.5t-95 -42.5q-106 0 -119 134q-5 47 -11.5 60
t-25.5 13q-104 0 -169 -259q-42 -166 -72.5 -216t-84.5 -102q115 -20 197 -150l243 -391q87 -140 197 -143v-37h-440l-369 585q-41 65 -69 79t-82 14v-483q0 -66 19.5 -100.5t51 -45.5t113.5 -12v-37h-703v37q94 2 127.5 14t49.5 43.5t16 111.5v994q0 80 -15.5 111.5
t-47.5 43.5t-130 14v37z" />
    <glyph glyph-name="afii10109" unicode="&#x45c;" horiz-adv-x="1147" 
d="M818 1442l-334 -350h-85l118 350h301zM52 950h465v-37q-93 -9 -93 -153v-233q110 0 155.5 36.5t94.5 180.5q46 136 109 175.5t127 39.5q81 0 134.5 -45.5t53.5 -116.5q0 -51 -31.5 -94.5t-89.5 -43.5q-105 0 -111 130q-3 47 -10 60t-26 13q-28 0 -49 -30t-58 -136
q-48 -136 -100 -179q58 -6 122 -40t127 -151q5 -10 12 -21l85 -146q67 -115 143 -122v-37h-349l-270 464h-69v-274q0 -95 27 -122t66 -31v-37h-465v37q93 8 93 153v570q0 144 -93 153v37z" />
    <glyph glyph-name="afii10102" unicode="&#x455;" horiz-adv-x="789" 
d="M53 310h23q51 -131 142.5 -199.5t186.5 -68.5q56 0 101.5 32.5t45.5 88.5q0 51 -44 91q-45 40 -166 96q-162 75 -231 147t-69 184q0 121 87 206t216 85q68 0 157 -36q57 -23 76 -23q48 0 83 59h23l17 -321h-25q-40 114 -130 182t-186 68q-53 0 -89.5 -28.5t-36.5 -69.5
q0 -78 183 -166q194 -93 268 -167q73 -74 73 -193q0 -123 -91 -214t-239 -91q-79 0 -189 42q-57 22 -76 22q-41 0 -68 -64h-19z" />
    <glyph glyph-name="endash" unicode="&#x2013;" 
d="M1039 541v-127h-1054v127h1054z" />
    <glyph glyph-name="emdash" unicode="&#x2014;" horiz-adv-x="2048" 
d="M2063 541v-127h-2078v127h2078z" />
    <glyph glyph-name="quotedblleft" unicode="&#x201c;" 
d="M425 1428v-43q-92 -34 -156.5 -116.5t-64.5 -170.5q0 -21 5 -31.5t15 -10.5l14 7q36 24 78 24q62 0 103 -50.5t41 -109.5q0 -67 -49 -119t-124 -52q-90 0 -147.5 73t-57.5 177q0 145 89 259.5t254 162.5zM903 1428v-43q-91 -34 -156 -116.5t-65 -171.5q0 -20 5.5 -30.5
t15.5 -10.5l14 7q36 24 78 24q64 0 103.5 -51.5t39.5 -108.5q0 -67 -48.5 -119t-123.5 -52q-91 0 -148 73.5t-57 176.5q0 160 95.5 267.5t246.5 154.5z" />
    <glyph glyph-name="quotedblright" unicode="&#x201d;" 
d="M599 756v44q91 33 156 116t65 171q0 21 -5 31t-16 10l-14 -7q-35 -23 -78 -23q-64 0 -103.5 51.5t-39.5 109.5q0 66 48 118.5t125 52.5q87 0 145.5 -72t58.5 -178q0 -146 -88 -260t-254 -164zM120 756v44q92 34 156.5 116.5t64.5 170.5q0 21 -5 31t-16 10l-14 -7
q-35 -23 -77 -23q-64 0 -104 51.5t-40 109.5q0 66 48.5 118.5t124.5 52.5q92 0 148.5 -74.5t56.5 -174.5q0 -162 -95.5 -269.5t-247.5 -155.5z" />
    <glyph glyph-name="quoteleft" unicode="&#x2018;" horiz-adv-x="555" 
d="M433 1428v-43q-92 -34 -156.5 -116.5t-64.5 -170.5q0 -21 5 -31.5t15 -10.5l14 7q36 24 78 24q62 0 103 -50.5t41 -109.5q0 -67 -49 -119t-124 -52q-90 0 -147.5 73t-57.5 177q0 145 89 259.5t254 162.5z" />
    <glyph glyph-name="quoteright" unicode="&#x2019;" horiz-adv-x="555" 
d="M127 756v44q92 34 156.5 116.5t64.5 170.5q0 21 -5 31t-16 10l-14 -7q-35 -23 -77 -23q-64 0 -104 51.5t-40 109.5q0 66 48.5 118.5t124.5 52.5q92 0 148.5 -74.5t56.5 -174.5q0 -162 -95.5 -269.5t-247.5 -155.5z" />
    <glyph glyph-name="quotedblbase" unicode="&#x201e;" 
d="M120 -366v44q91 34 156 116.5t65 171.5q0 21 -5 31t-15 10l-15 -8q-36 -27 -78 -27q-63 0 -103 52t-40 110q0 67 48.5 119.5t124.5 52.5q92 0 148.5 -74t56.5 -174q0 -160 -95 -268t-248 -156zM599 -366v44q90 33 155.5 116t65.5 172q0 21 -5 31t-15 10l-15 -8
q-36 -27 -78 -27q-63 0 -103 52t-40 110q0 67 48.5 119.5t124.5 52.5q90 0 147 -73.5t57 -175.5q0 -161 -95.5 -268.5t-246.5 -154.5z" />
    <glyph glyph-name="afii10062" unicode="&#x40e;" horiz-adv-x="1557" 
d="M839 1512q-211 0 -300 57t-89 133q0 41 29 67.5t71 26.5q81 0 125 -104q42 -103 159 -103q74 0 109 23t65 85q47 99 126 99q42 0 71 -27t29 -74q0 -79 -95 -131t-300 -52zM25 1406h663v-37h-39q-118 0 -118 -58q0 -29 30 -78l389 -644l292 576q35 69 35 110q0 94 -166 94
h-34v37h454v-37q-74 -16 -108.5 -49.5t-88.5 -139.5l-459 -915q-55 -110 -129 -201q-74 -92 -204 -92q-102 0 -165 47t-63 137q0 64 35 105t97 41q58 0 82 -28t33 -94q13 -93 73 -93q36 0 73.5 44.5t77.5 133.5l-599 986q-46 77 -72.5 97.5t-88.5 20.5v37z" />
    <glyph glyph-name="afii10110" unicode="&#x45e;" 
d="M526 1104q-121 0 -219.5 48.5t-98.5 136.5q0 97 89 97q79 0 121 -130q29 -90 124 -90t124 90q42 130 121 130q89 0 89 -97q0 -85 -94 -135t-256 -50zM989 950v-37q-55 -4 -89 -52.5t-104 -248.5l-262 -743q-67 -191 -132.5 -247t-151.5 -56q-81 0 -130 46t-49 114
q0 59 37 98.5t90 39.5q108 0 108 -138q0 -55 34 -55q66 0 145 231l18 54l-290 701q-64 153 -95.5 197t-83.5 59v37h500v-37q-91 -1 -91 -59q0 -39 32 -118l162 -392l119 344q29 85 29 136q0 50 -24.5 69t-82.5 20v37h311z" />
    <glyph glyph-name="afii10145" unicode="&#x40f;" horiz-adv-x="1706" 
d="M872 -394h-38q-6 394 -328 394h-468v37q92 0 125.5 11.5t50.5 42.5t17 104v1016q0 71 -16 102t-49.5 43.5t-127.5 12.5v37h704v-37q-104 -2 -144.5 -35t-40.5 -129v-1118h592v1118q0 98 -41.5 130.5t-143.5 33.5v37h704v-37h-35q-91 0 -124.5 -34t-33.5 -124v-1016
q0 -71 16 -102t50 -43.5t127 -12.5v-37h-468q-184 0 -255.5 -111t-72.5 -283z" />
    <glyph glyph-name="afii10193" unicode="&#x45f;" horiz-adv-x="1098" 
d="M568 -250h-37q0 131 -63 190.5t-165 59.5h-234v37q38 5 57.5 28.5t19.5 116.5v586q0 94 -20 117t-57 28v37h436v-37q-35 -5 -55.5 -27t-20.5 -118v-607q0 -61 15.5 -79.5t70.5 -18.5h71q54 0 70 18.5t16 79.5v607q0 80 -16 108.5t-61 36.5v37h435v-37q-45 -8 -61 -35.5
t-16 -109.5v-586q0 -82 16 -109.5t61 -35.5v-37h-235q-91 0 -159 -55.5t-68 -167.5v-27z" />
    <glyph glyph-name="afii61352" unicode="&#x2116;" horiz-adv-x="2155" 
d="M201 1406h521l468 -754v407q0 172 68.5 264t207.5 92q85 0 151.5 -53.5t66.5 -143.5q0 -63 -35.5 -97t-84.5 -34q-105 0 -123 120q-14 91 -61 91q-51 0 -77 -63t-26 -189v-1074h-38l-702 1140v-711q0 -172 -28.5 -254t-99 -128.5t-147.5 -46.5q-92 0 -160.5 56.5
t-68.5 142.5q0 60 37.5 95t86.5 35q98 0 119 -119q16 -85 66 -85q56 0 82.5 72.5t26.5 242.5v831q-47 69 -97.5 97t-152.5 29v37zM1456 655q0 149 96 243.5t228 94.5q131 0 224 -95.5t93 -241.5q0 -142 -91.5 -240.5t-226.5 -98.5q-143 0 -233 98t-90 240zM1695 648
q0 -186 18 -232t64 -46q47 0 63 54.5t16 236.5q0 196 -22 238t-58 42q-46 0 -63.5 -51t-17.5 -242zM1473 191h600v-191h-600v191z" />
    <glyph glyph-name="afii10023" unicode="&#x401;" horiz-adv-x="1366" 
d="M431 1799q60 0 103.5 -43t43.5 -105q0 -61 -43.5 -104.5t-103.5 -43.5q-61 0 -104.5 43.5t-43.5 104.5t43.5 104.5t104.5 43.5zM937 1798q59 0 103 -42t44 -105q0 -60 -43 -103t-104 -43q-60 0 -103 43t-43 103q0 61 43 104t103 43zM569 1333v-579h26q100 0 149.5 28
t82 98t49.5 198h38v-715h-38q-16 131 -52.5 200t-87.5 93t-141 24h-26v-442q0 -105 28.5 -134t108.5 -29h134q337 0 447 359h36l-65 -434h-1221v37h54q85 0 118 42.5t33 143.5v958q0 99 -32 143.5t-119 44.5h-54v37h1186v-398h-36q-22 122 -78 200t-130.5 101.5t-218.5 23.5
h-191z" />
    <glyph glyph-name="afii10071" unicode="&#x451;" horiz-adv-x="895" 
d="M666 1385q55 0 94 -39t39 -95q0 -55 -39 -94t-94 -39t-94 39t-39 94q0 57 39.5 95.5t93.5 38.5zM292 1384q55 0 94 -39t39 -94q0 -56 -39 -94.5t-94 -38.5q-54 0 -93.5 39t-39.5 94q0 57 40 95t93 38zM818 282l38 -22q-132 -288 -391 -288q-199 0 -308.5 139.5
t-109.5 344.5q0 219 129.5 367.5t296.5 148.5q156 0 269.5 -130t113.5 -337h-538q9 -171 89.5 -275t189.5 -104q135 0 221 156zM318 572h287q1 34 1 66q0 140 -39 204t-98 64q-60 0 -105.5 -78t-45.5 -256z" />
    <glyph glyph-name="afii10097" unicode="&#x44f;" horiz-adv-x="1022" 
d="M33 0v37q102 2 146 130l98 288q-206 65 -206 244q0 110 87 180.5t335 70.5h495v-37q-91 -6 -91 -144v-588q0 -134 91 -144v-37h-461v37q90 6 90 144v245h-74l-148 -426h-362zM617 874q-46 16 -93 16q-69 0 -113 -49t-44 -137q0 -215 230 -215h20v385z" />
    <glyph glyph-name="afii10065" unicode="&#x430;" 
d="M976 142l20 -19q-72 -151 -227 -151q-83 0 -129 38t-56 113q-13 -9 -63 -47q-138 -104 -249 -104q-75 0 -132 54t-57 142q0 103 95 193t406 232v123q0 79 -7 108t-39.5 51.5t-85.5 22.5q-56 0 -97.5 -23.5t-41.5 -59.5q0 -19 24 -47q40 -48 40 -91q0 -49 -37 -79t-94 -30
q-68 0 -108.5 35.5t-40.5 91.5q0 106 123 191.5t305 85.5q132 0 206 -37t104.5 -95.5t30.5 -169.5v-376q0 -122 11 -158t46 -36q30 0 53 42zM584 520q-221 -113 -221 -264q0 -51 28.5 -80.5t70.5 -29.5q30 0 60.5 13t61.5 39v322z" />
    <glyph glyph-name="afii10066" unicode="&#x431;" 
d="M918 1438h38q-33 -129 -120 -206t-197 -77q-35 0 -88 5q-36 3 -57 3q-161 0 -257 -115.5t-98 -327.5q132 252 384 252q180 0 313.5 -136.5t133.5 -365.5q0 -228 -134.5 -363t-313.5 -135q-190 0 -328.5 137.5t-138.5 439.5q0 316 78.5 515.5t198 271t332.5 71.5
q33 0 59 -1q55 -3 73 -3q67 0 122 35zM520 905q-57 0 -98 -46t-53.5 -126.5t-12.5 -270.5q0 -232 36 -327t123 -95q54 0 94.5 47t51 128t10.5 314q0 210 -32.5 293t-118.5 83z" />
    <glyph glyph-name="afii10067" unicode="&#x432;" horiz-adv-x="1038" 
d="M55 950h484q194 0 280 -66.5t86 -169.5q0 -167 -199 -213q129 -8 198 -78.5t69 -166.5q0 -128 -102.5 -192t-307.5 -64h-508v37q51 9 70.5 40.5t19.5 114.5v584q0 129 -90 137v37zM428 527q99 0 153 48t54 131q0 82 -53 131.5t-154 49.5v-360zM428 464v-306
q0 -54 13.5 -74.5t53.5 -20.5q74 0 127.5 60.5t53.5 148.5q0 108 -63 150t-185 42z" />
    <glyph glyph-name="afii10068" unicode="&#x433;" horiz-adv-x="866" 
d="M69 950h782v-247h-38q-14 95 -46.5 139.5t-148.5 44.5h-191v-697q0 -97 19 -119.5t57 -33.5v-37h-434v37q48 15 62 44t14 109v570q0 81 -14.5 109.5t-61.5 43.5v37z" />
    <glyph glyph-name="afii10069" unicode="&#x434;" horiz-adv-x="1055" 
d="M1011 37v-287h-38q-19 250 -360 250h-214q-339 0 -361 -250h-37v287q141 11 222 227.5t81 489.5q0 102 -30.5 130.5t-103.5 28.5v37h812v-37q-45 -12 -62 -43.5t-17 -108.5v-569q0 -86 21.5 -118t86.5 -37zM382 887v-117q0 -232 -48.5 -424.5t-131.5 -282.5h307
q76 0 100.5 31.5t24.5 113.5v679h-252z" />
    <glyph glyph-name="afii10070" unicode="&#x435;" horiz-adv-x="895" 
d="M818 282l38 -22q-132 -288 -391 -288q-199 0 -308.5 139.5t-109.5 344.5q0 219 129.5 367.5t296.5 148.5q156 0 269.5 -130t113.5 -337h-538q9 -171 89.5 -275t189.5 -104q135 0 221 156zM318 572h287q1 34 1 66q0 140 -39 204t-98 64q-60 0 -105.5 -78t-45.5 -256z" />
    <glyph glyph-name="afii10072" unicode="&#x436;" horiz-adv-x="1473" 
d="M871 526h21q47 0 84.5 35.5t70.5 146.5q49 164 96.5 207.5t112.5 43.5t113.5 -42.5t48.5 -117.5q0 -59 -29 -96t-76 -37q-93 0 -96 133q-1 59 -24 59q-37 0 -61 -88q-56 -207 -107 -253q135 -11 192 -130l132 -276q34 -72 86 -74v-37h-308l-192 405q-27 56 -64 58v-283
q0 -77 20.5 -107.5t71.5 -35.5v-37h-453v37q51 5 71 35.5t20 107.5v283q-37 -3 -63 -58l-193 -405h-307v37q52 3 86 74l132 276q56 119 191 130q-49 45 -106 253q-24 88 -60 88q-25 0 -26 -59q-3 -133 -95 -133q-47 0 -76 37t-29 95q0 72 46.5 116.5t115.5 44.5
q57 0 105 -35t103 -216q30 -97 45.5 -119.5t54.5 -42.5t55 -20h21v244q0 76 -20 106.5t-71 36.5v37h453v-37q-51 -6 -71.5 -36.5t-20.5 -106.5v-244z" />
    <glyph glyph-name="afii10073" unicode="&#x437;" horiz-adv-x="854" 
d="M297 463v63q176 0 176 186q0 94 -45 140t-114 46q-159 0 -200 -221h-37l13 295h37q15 -41 46 -41q15 0 43 8q108 33 212 33q153 0 236 -71t83 -163q0 -76 -60.5 -142.5t-174.5 -88.5q149 -24 216.5 -96.5t67.5 -160.5q0 -119 -108 -198.5t-290 -79.5q-270 0 -375 196
l32 19q114 -115 242 -115q92 0 147.5 54.5t55.5 148.5q0 83 -55.5 134.5t-147.5 53.5z" />
    <glyph glyph-name="afii10074" unicode="&#x438;" horiz-adv-x="1116" 
d="M67 950h440v-37q-78 -14 -78 -150v-455l260 470q-1 119 -78 135v37h438v-37q-78 -14 -78 -150v-577q0 -74 17 -106t61 -43v-37h-438v37q78 14 78 149v453l-260 -467q0 -119 78 -135v-37h-440v37q78 14 78 149v577q0 75 -17.5 107t-60.5 43v37z" />
    <glyph glyph-name="afii10075" unicode="&#x439;" horiz-adv-x="1116" 
d="M567 1104q-159 0 -257 50t-98 135q0 45 26 71t62 26q78 0 121 -134q28 -90 134 -90q69 0 97 18q27 17 44 68q45 138 124 138q35 0 61 -25.5t26 -71.5q0 -87 -91.5 -136t-248.5 -49zM67 950h440v-37q-78 -14 -78 -150v-455l260 470q-1 119 -78 135v37h438v-37
q-78 -14 -78 -150v-577q0 -74 17 -106t61 -43v-37h-438v37q78 14 78 149v453l-260 -467q0 -119 78 -135v-37h-440v37q78 14 78 149v577q0 75 -17.5 107t-60.5 43v37z" />
    <glyph glyph-name="afii10076" unicode="&#x43a;" horiz-adv-x="1147" 
d="M52 950h465v-37q-93 -9 -93 -153v-233q110 0 155.5 36.5t94.5 180.5q46 136 109 176q63 39 127 39q81 0 134.5 -45.5t53.5 -116.5q0 -51 -31.5 -94.5t-89.5 -43.5q-105 0 -111 130q-3 47 -10 60t-26 13q-28 0 -49 -30t-58 -136q-48 -136 -100 -179q58 -6 122 -40
t127 -151q5 -10 12 -21l85 -146q67 -115 143 -122v-37h-349l-270 464h-69v-274q0 -95 27 -122t66 -31v-37h-465v37q93 8 93 153v570q0 144 -93 153v37z" />
    <glyph glyph-name="afii10077" unicode="&#x43b;" horiz-adv-x="1110" 
d="M246 950h821v-37q-56 -5 -79 -35t-23 -105v-596q0 -75 22.5 -105t79.5 -35v-37h-498v37q115 4 115 135v715h-266v-396q0 -267 -55 -383.5t-179 -116.5q-71 0 -123.5 43t-52.5 114q0 61 36 100t90 39q53 0 80.5 -36.5t27.5 -81.5v-41q0 -34 21 -34q46 0 69 102.5t23 306.5
v230q0 106 -22.5 141t-86.5 39v37z" />
    <glyph glyph-name="afii10078" unicode="&#x43c;" horiz-adv-x="1325" 
d="M44 950h384l237 -590l234 590h382v-37q-58 -4 -79.5 -34.5t-21.5 -106.5v-595q0 -74 21 -105t80 -35v-37h-497v37q61 3 88 36t27 110v607l-323 -790h-51l-316 778v-613q0 -126 108 -128v-37h-273v37q58 4 80 34.5t22 105.5v595q0 75 -21.5 106t-80.5 35v37z" />
    <glyph glyph-name="afii10079" unicode="&#x43d;" horiz-adv-x="1112" 
d="M427 525h259v236q0 77 -17 108.5t-62 43.5v37h439v-37q-45 -12 -62 -43.5t-17 -108.5v-572q0 -77 17 -109t62 -43v-37h-439v37q44 11 61.5 42.5t17.5 109.5v272h-259v-272q0 -78 17.5 -109.5t61.5 -42.5v-37h-439v37q44 11 61.5 42.5t17.5 109.5v572q0 77 -17 108.5
t-62 43.5v37h439v-37q-45 -11 -62 -42.5t-17 -109.5v-236z" />
    <glyph glyph-name="afii10080" unicode="&#x43e;" 
d="M966 469q0 -241 -142 -369t-307 -128q-172 0 -315.5 128.5t-143.5 373.5q0 222 131 360t320 138q193 0 325 -135.5t132 -367.5zM672 449q0 274 -33 365t-125 91q-83 0 -122 -83t-39 -285q0 -298 32.5 -394.5t127.5 -96.5q87 0 123 86.5t36 316.5z" />
    <glyph glyph-name="afii10081" unicode="&#x43f;" horiz-adv-x="1124" 
d="M73 950h979v-37q-43 -16 -57.5 -43.5t-14.5 -93.5v-602q0 -66 14.5 -93.5t57.5 -43.5v-37h-440v37q88 15 88 155v695h-271v-695q0 -84 22 -115t66 -40v-37h-444v37q43 16 57.5 43.5t14.5 93.5v602q0 66 -14.5 93.5t-57.5 43.5v37z" />
    <glyph glyph-name="afii10082" unicode="&#x440;" 
d="M423 950v-113q43 68 98 101.5t122 33.5q135 0 233 -137.5t98 -363.5q0 -234 -109.5 -366.5t-244.5 -132.5q-60 0 -109 27t-88 81v-293q0 -107 20 -144t81 -37h42v-38h-537v38q70 0 91.5 35t21.5 146v940q0 114 -22 150t-91 36v37h394zM423 729v-559q39 -50 74 -75t66 -25
q56 0 86 74t30 321q0 193 -32 289t-97 96q-37 0 -68.5 -30t-58.5 -91z" />
    <glyph glyph-name="afii10083" unicode="&#x441;" horiz-adv-x="895" 
d="M840 240l31 -22q-132 -246 -386 -246q-202 0 -319 144.5t-117 337.5q0 223 132.5 370.5t332.5 147.5q137 0 234 -70t97 -169q0 -50 -34.5 -87t-90.5 -37q-135 0 -155 184q-12 108 -95 108q-70 0 -111 -80t-41 -217q0 -172 76 -323.5t226 -151.5q119 0 220 111z" />
    <glyph glyph-name="afii10084" unicode="&#x442;" horiz-adv-x="1003" 
d="M45 950h914v-245h-38q-4 69 -40.5 125.5t-149.5 56.5h-88v-710q0 -89 32.5 -113t77.5 -27v-37h-503v37q62 7 86 37t24 103v710h-116q-146 0 -162 -182h-37v245z" />
    <glyph glyph-name="afii10085" unicode="&#x443;" 
d="M989 950v-37q-54 -4 -87.5 -50.5t-105.5 -250.5l-262 -743q-66 -189 -131.5 -246t-152.5 -57q-79 0 -129 44.5t-50 115.5q0 59 36.5 98.5t90.5 39.5q108 0 108 -138q0 -55 33 -55q67 0 146 231l18 54l-290 701q-63 152 -94.5 196.5t-84.5 59.5v37h500v-37q-91 -4 -91 -59
q0 -39 32 -118l162 -392l119 344q29 86 29 138q0 48 -24.5 67t-82.5 20v37h311z" />
    <glyph glyph-name="afii10086" unicode="&#x444;" horiz-adv-x="1366" 
d="M823 52v-300q0 -78 17.5 -108t70.5 -38v-38h-455v38q52 8 70 37.5t18 108.5v300q-41 -40 -82 -60t-83 -20q-126 0 -222.5 127.5t-96.5 371.5q0 237 96.5 369t225.5 132q47 0 87.5 -20.5t74.5 -61.5v333q0 77 -18 107t-70 39v37h367v-516q35 41 75.5 61.5t86.5 20.5
q123 0 222.5 -127t99.5 -374q0 -225 -91 -362t-229 -137q-41 0 -82 20t-82 60zM544 806q-12 26 -30 38.5t-41 12.5q-52 0 -91 -92.5t-39 -293.5q0 -193 32.5 -289.5t97.5 -96.5q17 0 35 13t36 39v669zM823 806v-669q20 -26 38.5 -39t35.5 -13q64 0 95.5 97t31.5 290
q0 195 -38 290t-94 95q-21 0 -38 -12.5t-31 -38.5z" />
    <glyph glyph-name="afii10087" unicode="&#x445;" horiz-adv-x="1131" 
d="M668 564l283 -413q51 -74 76 -94t65 -20v-37h-528v37h22q69 0 69 40q0 26 -48 96l-117 175l-112 -135q-66 -80 -66 -120q0 -56 96 -56v-37h-368v37q64 1 106 22.5t100 91.5l208 250l-271 390q-55 80 -80 101t-63 21v37h524v-37q-90 0 -90 -41q0 -26 33 -74l125 -181
l124 152q41 50 41 87q0 57 -84 57v37h336v-37q-66 -4 -103 -30.5t-116 -123.5z" />
    <glyph glyph-name="afii10088" unicode="&#x446;" horiz-adv-x="1131" 
d="M68 0v37q38 5 57.5 28.5t19.5 116.5v586q0 94 -20 117t-57 28v37h436v-37q-35 -5 -55.5 -27t-20.5 -118v-607q0 -61 15.5 -79.5t70.5 -18.5h98q54 0 70 18.5t16 79.5v607q0 94 -20 117t-57 28v37h435v-37q-44 -8 -60.5 -35.5t-16.5 -109.5v-576q0 -86 21.5 -118t85.5 -37
v-287h-37q-19 250 -361 250h-620z" />
    <glyph glyph-name="afii10089" unicode="&#x447;" horiz-adv-x="1055" 
d="M29 950h436v-37q-45 -13 -61.5 -41.5t-16.5 -112.5v-170q0 -57 23 -85.5t68 -28.5q52 0 150 30v254q0 84 -16.5 112.5t-61.5 41.5v37h437v-37q-45 -13 -61.5 -41.5t-16.5 -112.5v-569q0 -84 16.5 -112.5t61.5 -40.5v-37h-437v37q45 12 61.5 41t16.5 112v254
q-176 -65 -288 -65q-84 0 -158 51q-75 50 -75 182v147q0 84 -16.5 113t-61.5 41v37z" />
    <glyph glyph-name="afii10090" unicode="&#x448;" horiz-adv-x="1667" 
d="M67 950h449v-37q-49 -7 -68 -38.5t-19 -113.5v-590q0 -67 16.5 -87.5t70.5 -20.5h90q53 0 69.5 20t16.5 88v590q0 81 -18.5 112.5t-67.5 39.5v37h456v-37q-48 -7 -67.5 -38.5t-19.5 -113.5v-590q0 -67 16.5 -87.5t70.5 -20.5h90q50 0 68 16.5t18 91.5v590q0 81 -18.5 113
t-67.5 39v37h448v-37q-44 -12 -61 -43t-17 -109v-572q0 -77 16.5 -109t61.5 -43v-37h-1533v37q44 11 61.5 42.5t17.5 109.5v572q0 77 -17 108.5t-62 43.5v37z" />
    <glyph glyph-name="afii10091" unicode="&#x449;" horiz-adv-x="1671" 
d="M66 0v37q44 11 61.5 43t17.5 110v572q0 76 -16.5 107.5t-62.5 43.5v37h449v-37q-49 -7 -68 -38.5t-19 -112.5v-591q0 -67 16.5 -87.5t70.5 -20.5h90q53 0 69.5 20t16.5 88v591q0 80 -18.5 111.5t-67.5 39.5v37h456v-37q-48 -7 -67.5 -38.5t-19.5 -112.5v-591
q0 -67 16.5 -87.5t70.5 -20.5h90q50 0 68 16.5t18 91.5v591q0 80 -18.5 112t-67.5 39v37h448v-37q-44 -12 -61 -43.5t-17 -107.5v-572q0 -85 21.5 -116.5t87.5 -36.5v-287h-38q-28 250 -362 250h-1164z" />
    <glyph glyph-name="afii10092" unicode="&#x44a;" horiz-adv-x="1131" 
d="M34 950h609v-37q-55 -10 -73 -42.5t-18 -120.5v-224h82q234 0 339 -75.5t105 -192.5q0 -102 -93 -180t-328 -78h-479v37q55 10 73.5 42.5t18.5 120.5v687h-32q-143 0 -167 -184h-37v247zM552 462v-289q0 -63 14 -87t47 -24q70 0 120 59.5t50 143.5q0 95 -61 146t-170 51z
" />
    <glyph glyph-name="afii10093" unicode="&#x44b;" horiz-adv-x="1503" 
d="M975 950h485v-37q-102 -8 -102 -137v-604q0 -125 102 -135v-37h-485v37q101 8 101 135v604q0 129 -101 137v37zM54 950h464v-37q-54 -10 -72.5 -41.5t-18.5 -112.5v-233h149q197 0 297.5 -78.5t100.5 -188.5q0 -113 -100.5 -186t-297.5 -73h-522v37q54 10 72.5 41.5
t18.5 112.5v568q0 81 -18.5 112.5t-72.5 41.5v37zM427 462v-298q0 -102 62 -102q78 0 134.5 62t56.5 153q0 74 -56 130.5t-161 56.5q-15 0 -36 -2z" />
    <glyph glyph-name="afii10094" unicode="&#x44c;" horiz-adv-x="1026" 
d="M54 950h464v-37q-54 -10 -72.5 -41.5t-18.5 -112.5v-233h149q197 0 297.5 -78.5t100.5 -188.5q0 -113 -100.5 -186t-297.5 -73h-522v37q54 10 72.5 41.5t18.5 112.5v568q0 81 -18.5 112.5t-72.5 41.5v37zM427 462v-298q0 -102 62 -102q78 0 134.5 62t56.5 153
q0 74 -56 130.5t-161 56.5q-15 0 -36 -2z" />
    <glyph glyph-name="afii10095" unicode="&#x44d;" horiz-adv-x="895" 
d="M320 523v-63h220q1 -26 1 -38q0 -175 -60 -263t-180 -88q-127 0 -228 109l-33 -17q97 -191 339 -191q206 0 332 148.5t126 374.5q0 212 -122 344.5t-308 132.5q-72 0 -192 -37q-25 -8 -43 -8q-40 0 -49 45h-37l-13 -299h37q68 226 240 226q96 0 144 -81t48 -243
q0 -17 -2 -52h-220z" />
    <glyph glyph-name="afii10096" unicode="&#x44e;" horiz-adv-x="1579" 
d="M427 505h185q2 196 124.5 331.5t323.5 135.5q207 0 334.5 -133t127.5 -368q0 -222 -126 -360.5t-323 -138.5q-195 0 -319.5 118t-141.5 352h-185v-270q0 -125 101 -135v-37h-484v37q101 8 101 135v604q0 129 -101 137v37h484v-37q-101 -8 -101 -137v-271zM906 505
q0 -195 10 -285.5t53 -137.5t97 -47q63 0 112.5 66t49.5 403q0 242 -39.5 324t-122.5 82q-82 0 -121 -84.5t-39 -320.5z" />
    <glyph glyph-name="currency" unicode="&#xa4;" horiz-adv-x="1429" 
d="M968 1097l132 133l140 -143l-131 -132q73 -119 73 -250q0 -135 -73 -253l131 -130l-140 -142l-132 130q-58 -37 -122 -55.5t-134 -18.5q-66 0 -128.5 18.5t-120.5 55.5l-131 -130l-142 142l132 130q-74 115 -74 254q0 133 74 249l-132 132l142 143l131 -133q60 37 123 55
t128 18q66 0 129.5 -18t124.5 -55zM715 971q-110 0 -188.5 -78.5t-78.5 -189.5q0 -110 78.5 -189t188.5 -79t189 79t79 189q0 115 -80 191.5t-188 76.5z" />
    <glyph glyph-name="brokenbar" unicode="&#xa6;" horiz-adv-x="449" 
d="M116 1438h217v-799h-217v799zM116 363h217v-797h-217v797z" />
    <glyph glyph-name="afii10050" unicode="&#x490;" horiz-adv-x="1022" 
d="M25 1406h649q87 0 134.5 20.5t86 83.5t62.5 175h38v-365h-466v-1112q0 -109 40 -140t152 -31v-37h-696v37h20q64 0 99 17t48 50.5t13 124.5v965q0 105 -35.5 139.5t-144.5 35.5v37z" />
    <glyph glyph-name="afii10098" unicode="&#x491;" horiz-adv-x="735" 
d="M46 950h438q70 0 105 12.5t61 54.5t32 115h37v-247h-292v-703q0 -80 23 -111t81 -34v-37h-485v37q63 4 81.5 36t18.5 129v533q0 109 -17.5 140.5t-82.5 37.5v37z" />
    <glyph glyph-name="quotesinglbase" unicode="&#x201a;" horiz-adv-x="682" 
d="M188 -359v44q221 95 221 295q0 29 -23 29q-5 0 -16 -5q-35 -17 -71 -17q-66 0 -106.5 49.5t-40.5 104.5q0 59 47 112.5t124 53.5q88 0 148 -68.5t60 -180.5q0 -155 -92.5 -262t-250.5 -155z" />
    <glyph glyph-name="doubledagger" unicode="&#x2021;" 
d="M532 980q1 -92 111 -185q-49 -40 -79.5 -98t-30.5 -173q0 -114 24 -174t86 -113q-104 -95 -111 -181q66 2 157 45q79 37 120 37q45 0 78.5 -28t33.5 -75q0 -48 -33 -75.5t-69 -27.5q-46 0 -159 51q-68 30 -128 32q10 -68 55 -173q38 -87 38 -130t-32 -78.5t-84 -35.5
q-54 0 -83.5 36t-29.5 78q0 49 45 146q37 78 52 157q-65 -2 -145 -40q-89 -42 -135 -42q-54 0 -84 30t-30 72q0 45 34 74t75 29q52 0 134 -39q90 -43 151 -43q-11 102 -114 181q64 54 87 115t23 176q0 98 -21.5 149.5t-88.5 117.5q106 90 114 185q-62 0 -150 -42
q-92 -43 -129 -43q-49 0 -81 30t-32 74q0 43 30.5 72.5t74.5 29.5q50 0 157 -50q74 -33 110 -33h20q-6 48 -58 169q-37 84 -37 133q0 47 31.5 82.5t82.5 35.5q54 0 83.5 -38.5t29.5 -76.5q0 -44 -48 -155q-38 -89 -45 -150q64 3 133 36q99 48 149 48q42 0 75.5 -28.5
t33.5 -74.5q0 -47 -34 -75.5t-70 -28.5q-42 0 -124 35q-111 47 -163 50z" />
    <glyph glyph-name="perthousand" unicode="&#x2030;" horiz-adv-x="2218" 
d="M1263 1439l-910 -1495h-127l910 1495h127zM596 1068q0 -157 -73.5 -261.5t-206.5 -104.5q-126 0 -202.5 102.5t-76.5 261.5t78 261.5t202 102.5q123 0 201 -97.5t78 -264.5zM407 1116q0 183 -16 231.5t-73 48.5q-62 0 -77 -61.5t-15 -337.5q0 -194 24.5 -229t68.5 -35
q60 0 73 52.5t15 330.5zM1456 352q0 -163 -77 -263.5t-203 -100.5t-202.5 102t-76.5 262q0 158 77 260t203 102q123 0 201 -97.5t78 -264.5zM1267 402q0 184 -16 231.5t-73 47.5q-61 0 -76.5 -60t-15.5 -334q0 -200 24.5 -234t68.5 -34q60 0 74 55.5t14 327.5zM2182 353
q0 -164 -77 -264.5t-204 -100.5q-137 0 -207.5 108t-70.5 255q0 159 78 261t201 102q124 0 202 -97.5t78 -263.5zM1992 400q0 186 -15.5 233.5t-72.5 47.5q-61 0 -76.5 -59.5t-15.5 -326.5q0 -203 23 -239.5t69 -36.5q60 0 74 55.5t14 325.5z" />
    <glyph glyph-name="guilsinglleft" unicode="&#x2039;" horiz-adv-x="682" 
d="M594 982l-240 -460l240 -465h-79l-426 465l426 460h79z" />
    <glyph glyph-name="guillsinglright" unicode="&#x203a;" horiz-adv-x="682" 
d="M90 982h75l427 -460l-427 -465h-75l239 465z" />
    <glyph glyph-name="periodcentered" unicode="&#xb7;" horiz-adv-x="555" 
d="M278 868q67 0 116 -47t49 -118q0 -68 -48.5 -116.5t-116.5 -48.5q-69 0 -117 48.5t-48 116.5q0 71 49 118t116 47z" />
    <glyph glyph-name="periodcentered" unicode="&#x2219;" horiz-adv-x="555" 
d="M278 868q67 0 116 -47t49 -118q0 -68 -48.5 -116.5t-116.5 -48.5q-69 0 -117 48.5t-48 116.5q0 71 49 118t116 47z" />
  </font>
</defs>
</svg>
